<svg xmlns="http://www.w3.org/2000/svg" width="540" height="52" viewBox="0 0 540 52" role="img" aria-label="KernelLord ai stack">
  <rect x="0" y="0" width="52" height="52" rx="12" fill="#15171e" stroke="#2a2f3a" stroke-width="1"/>
  <g transform="translate(11.00,11.00) scale(1.2500)" fill="#EE4C2C" color="#EE4C2C"><path d="M12.005 0L4.952 7.053a9.865 9.865 0 000 14.022 9.866 9.866 0 0014.022 0c3.984-3.9 3.986-10.205.085-14.023l-1.744 1.743c2.904 2.905 2.904 7.634 0 10.538s-7.634 2.904-10.538 0-2.904-7.634 0-10.538l4.647-4.646.582-.665zm3.568 3.899a1.327 1.327 0 00-1.327 1.327 1.327 1.327 0 001.327 1.328A1.327 1.327 0 0016.9 5.226 1.327 1.327 0 0015.573 3.9z"/></g>
  <rect x="61" y="0" width="52" height="52" rx="12" fill="#15171e" stroke="#2a2f3a" stroke-width="1"/>
  <g transform="translate(72.00,11.00) scale(1.2500)" fill="#FF6F00" color="#FF6F00"><path d="M1.292 5.856L11.54 0v24l-4.095-2.378V7.603l-6.168 3.564.015-5.31zm21.43 5.311l-.014-5.31L12.46 0v24l4.095-2.378V14.87l3.092 1.788-.018-4.618-3.074-1.756V7.603l6.168 3.564z"/></g>
  <rect x="122" y="0" width="52" height="52" rx="12" fill="#15171e" stroke="#2a2f3a" stroke-width="1"/>
  <g transform="translate(133.00,11.00) scale(1.2500)" fill="#F7931E" color="#F7931E"><path d="M15.601 5.53c-1.91.035-3.981.91-5.63 2.56-2.93 2.93-2.083 8.53-1.088 9.525.805.804 6.595 1.843 9.526-1.088a9.74 9.74 0 0 0 .584-.643c.043-.292.205-.66.489-1.106a1.848 1.848 0 0 1-.537.176c-.144.265-.37.55-.676.855-.354.335-.607.554-.76.656a.795.795 0 0 1-.437.152c-.35 0-.514-.308-.494-.924-.22.316-.425.549-.612.7a.914.914 0 0 1-.578.224c-.194 0-.36-.09-.496-.273a1.03 1.03 0 0 1-.193-.507 4.016 4.016 0 0 1-.726.583c-.224.132-.47.197-.74.197-.3 0-.543-.096-.727-.288a.978.978 0 0 1-.257-.524v.004c-.3.276-.564.48-.79.611a1.295 1.295 0 0 1-.649.197.693.693 0 0 1-.571-.275c-.145-.183-.218-.43-.218-.739 0-.464.101-1.02.302-1.67.201-.65.445-1.25.733-1.797l.842-.312a.21.21 0 0 1 .06-.013c.063 0 .116.047.157.14.04.095.061.221.061.38 0 .451-.104.888-.312 1.31-.207.422-.532.873-.974 1.352-.018.23-.027.388-.027.474 0 .193.036.345.106.458.071.113.165.169.282.169a.71.71 0 0 0 .382-.13c.132-.084.333-.26.602-.523.028-.418.187-.798.482-1.142.324-.38.685-.569 1.08-.569.206 0 .37.054.494.16a.524.524 0 0 1 .186.417c0 .458-.486.829-1.459 1.114.088.43.32.646.693.646a.807.807 0 0 0 .417-.117c.129-.076.321-.243.575-.497.032-.252.118-.495.259-.728.182-.3.416-.544.701-.73.285-.185.537-.278.756-.278.276 0 .47.127.58.381l.677-.374h.186l-.292.971c-.15.488-.226.823-.226 1.004 0 .19.067.285.202.285.086 0 .181-.045.285-.137.104-.092.25-.232.437-.42v.001c.143-.155.274-.32.392-.494-.19-.084-.285-.21-.285-.375 0-.17.058-.352.174-.545.116-.194.275-.29.479-.29.172 0 .258.088.258.265 0 .139-.05.338-.149.596.367-.04.687-.32.961-.842l.228-.01c1.059-2.438.828-5.075-.83-6.732-1.019-1.02-2.408-1.5-3.895-1.471zm4.725 8.203a8.938 8.938 0 0 1-1.333 2.151 1.09 1.09 0 0 0-.012.147c0 .168.047.309.14.423.092.113.206.17.34.17.296 0 .714-.264 1.254-.787-.001.04-.003.08-.003.121 0 .146.012.368.036.666l.733-.172c0-.2.003-.357.01-.474.01-.157.033-.33.066-.517.02-.11.07-.216.152-.315l.186-.216a5.276 5.276 0 0 1 .378-.397c.062-.055.116-.099.162-.13a.26.26 0 0 1 .123-.046c.055 0 .083.035.083.106 0 .07-.052.236-.156.497-.194.486-.292.848-.292 1.084 0 .175.046.314.136.418a.45.45 0 0 0 .358.155c.365 0 .803-.269 1.313-.808v-.381c-.361.426-.623.64-.784.64-.109 0-.163-.067-.163-.2 0-.1.065-.316.195-.65.19-.486.285-.836.285-1.048a.464.464 0 0 0-.112-.319.36.36 0 0 0-.282-.127c-.165 0-.354.077-.567.233-.213.156-.5.436-.863.84.053-.262.165-.622.335-1.08l-.809.156a6.54 6.54 0 0 0-.399 1.074c-.04.156-.07.316-.092.48a7.447 7.447 0 0 1-.49.45.38.38 0 0 1-.229.08.208.208 0 0 1-.174-.082.352.352 0 0 1-.064-.222c0-.1.019-.214.056-.343.038-.13.12-.373.249-.731l.308-.849zm-17.21-2.927c-.863-.016-1.67.263-2.261.854-1.352 1.352-1.07 3.827.631 5.527 1.7 1.701 4.95 1.21 5.527.632.467-.466 1.07-3.827-.631-5.527-.957-.957-2.158-1.465-3.267-1.486zm12.285.358h.166v.21H15.4zm.427 0h.166v.865l.46-.455h.195l-.364.362.428.684h-.198l-.357-.575-.164.166v.41h-.166zm1.016 0h.166v.21h-.166zm.481.122h.166v.288h.172v.135h-.172v.717c0 .037.006.062.02.075.012.013.037.02.074.02a.23.23 0 0 0 .078-.01v.141a.802.802 0 0 1-.136.014.23.23 0 0 1-.15-.043.15.15 0 0 1-.052-.123v-.79h-.141v-.136h.141zm-3.562.258c.081 0 .15.012.207.038.057.024.1.061.13.11s.045.106.045.173h-.176c-.006-.111-.075-.167-.208-.167a.285.285 0 0 0-.164.041.134.134 0 0 0-.06.117c0 .035.015.065.045.088.03.024.08.044.15.06l.16.039a.47.47 0 0 1 .224.105c.047.046.07.108.07.186a.3.3 0 0 1-.052.175.327.327 0 0 1-.152.116.585.585 0 0 1-.226.041c-.136 0-.24-.03-.309-.088-.069-.059-.105-.149-.109-.269h.176c.004.037.01.065.017.084a.166.166 0 0 0 .034.054c.044.043.112.065.204.065a.31.31 0 0 0 .177-.045.139.139 0 0 0 .067-.119.116.116 0 0 0-.038-.09.287.287 0 0 0-.124-.055l-.156-.038a1.248 1.248 0 0 1-.159-.05.359.359 0 0 1-.098-.061.22.22 0 0 1-.058-.083.32.32 0 0 1-.016-.108c0-.096.036-.174.109-.232a.45.45 0 0 1 .29-.087zm1.035 0a.46.46 0 0 1 .202.043.351.351 0 0 1 .187.212.577.577 0 0 1 .023.126h-.168a.256.256 0 0 0-.078-.168.242.242 0 0 0-.17-.06.248.248 0 0 0-.155.05.306.306 0 0 0-.1.144.662.662 0 0 0-.034.224.58.58 0 0 0 .035.214.299.299 0 0 0 .101.135.261.261 0 0 0 .157.048c.142 0 .227-.084.256-.252h.167a.519.519 0 0 1-.065.22.35.35 0 0 1-.146.138.464.464 0 0 1-.216.048.448.448 0 0 1-.246-.066.441.441 0 0 1-.161-.192.703.703 0 0 1-.057-.293c0-.085.01-.163.032-.233a.522.522 0 0 1 .095-.182.403.403 0 0 1 .15-.117.453.453 0 0 1 .191-.04zm.603.03h.166v1.046H15.4zm1.443 0h.166v1.046h-.166zm-5.05.618c-.08 0-.2.204-.356.611-.155.407-.308.977-.459 1.71.281-.312.509-.662.683-1.05.175-.387.262-.72.262-.999a.455.455 0 0 0-.036-.197c-.025-.05-.056-.075-.093-.075zm4.662 1.797c-.221 0-.431.188-.629.563-.197.376-.296.722-.296 1.038 0 .12.029.216.088.29a.273.273 0 0 0 .223.111c.221 0 .43-.188.625-.565.196-.377.294-.725.294-1.043a.457.457 0 0 0-.083-.29.269.269 0 0 0-.222-.104zm-2.848.007c-.146 0-.285.11-.417.333-.133.222-.2.51-.2.866.566-.159.849-.452.849-.881 0-.212-.077-.318-.232-.318Z"/></g>
  <rect x="183" y="0" width="52" height="52" rx="12" fill="#15171e" stroke="#2a2f3a" stroke-width="1"/>
  <g transform="translate(194.00,11.00) scale(1.2500)" fill="#FFD21E" color="#FFD21E"><path d="M12.025 1.13c-5.77 0-10.449 4.647-10.449 10.378 0 1.112.178 2.181.503 3.185.064-.222.203-.444.416-.577a.96.96 0 0 1 .524-.15c.293 0 .584.124.84.284.278.173.48.408.71.694.226.282.458.611.684.951v-.014c.017-.324.106-.622.264-.874s.403-.487.762-.543c.3-.047.596.06.787.203s.31.313.4.467c.15.257.212.468.233.542.01.026.653 1.552 1.657 2.54.616.605 1.01 1.223 1.082 1.912.055.537-.096 1.059-.38 1.572.637.121 1.294.187 1.967.187.657 0 1.298-.063 1.921-.178-.287-.517-.44-1.041-.384-1.581.07-.69.465-1.307 1.081-1.913 1.004-.987 1.647-2.513 1.657-2.539.021-.074.083-.285.233-.542.09-.154.208-.323.4-.467a1.08 1.08 0 0 1 .787-.203c.359.056.604.29.762.543s.247.55.265.874v.015c.225-.34.457-.67.683-.952.23-.286.432-.52.71-.694.257-.16.547-.284.84-.285a.97.97 0 0 1 .524.151c.228.143.373.388.43.625l.006.04a10.3 10.3 0 0 0 .534-3.273c0-5.731-4.678-10.378-10.449-10.378M8.327 6.583a1.5 1.5 0 0 1 .713.174 1.487 1.487 0 0 1 .617 2.013c-.183.343-.762-.214-1.102-.094-.38.134-.532.914-.917.71a1.487 1.487 0 0 1 .69-2.803m7.486 0a1.487 1.487 0 0 1 .689 2.803c-.385.204-.536-.576-.916-.71-.34-.12-.92.437-1.103.094a1.487 1.487 0 0 1 .617-2.013 1.5 1.5 0 0 1 .713-.174m-10.68 1.55a.96.96 0 1 1 0 1.921.96.96 0 0 1 0-1.92m13.838 0a.96.96 0 1 1 0 1.92.96.96 0 0 1 0-1.92M8.489 11.458c.588.01 1.965 1.157 3.572 1.164 1.607-.007 2.984-1.155 3.572-1.164.196-.003.305.12.305.454 0 .886-.424 2.328-1.563 3.202-.22-.756-1.396-1.366-1.63-1.32q-.011.001-.02.006l-.044.026-.01.008-.03.024q-.018.017-.035.036l-.032.04a1 1 0 0 0-.058.09l-.014.025q-.049.088-.11.19a1 1 0 0 1-.083.116 1.2 1.2 0 0 1-.173.18q-.035.029-.075.058a1.3 1.3 0 0 1-.251-.243 1 1 0 0 1-.076-.107c-.124-.193-.177-.363-.337-.444-.034-.016-.104-.008-.2.022q-.094.03-.216.087-.06.028-.125.063l-.13.074q-.067.04-.136.086a3 3 0 0 0-.135.096 3 3 0 0 0-.26.219 2 2 0 0 0-.12.121 2 2 0 0 0-.106.128l-.002.002a2 2 0 0 0-.09.132l-.001.001a1.2 1.2 0 0 0-.105.212q-.013.036-.024.073c-1.139-.875-1.563-2.317-1.563-3.203 0-.334.109-.457.305-.454m.836 10.354c.824-1.19.766-2.082-.365-3.194-1.13-1.112-1.789-2.738-1.789-2.738s-.246-.945-.806-.858-.97 1.499.202 2.362c1.173.864-.233 1.45-.685.64-.45-.812-1.683-2.896-2.322-3.295s-1.089-.175-.938.647 2.822 2.813 2.562 3.244-1.176-.506-1.176-.506-2.866-2.567-3.49-1.898.473 1.23 2.037 2.16c1.564.932 1.686 1.178 1.464 1.53s-3.675-2.511-4-1.297c-.323 1.214 3.524 1.567 3.287 2.405-.238.839-2.71-1.587-3.216-.642-.506.946 3.49 2.056 3.522 2.064 1.29.33 4.568 1.028 5.713-.624m5.349 0c-.824-1.19-.766-2.082.365-3.194 1.13-1.112 1.789-2.738 1.789-2.738s.246-.945.806-.858.97 1.499-.202 2.362c-1.173.864.233 1.45.685.64.451-.812 1.683-2.896 2.322-3.295s1.089-.175.938.647-2.822 2.813-2.562 3.244 1.176-.506 1.176-.506 2.866-2.567 3.49-1.898-.473 1.23-2.037 2.16c-1.564.932-1.686 1.178-1.464 1.53s3.675-2.511 4-1.297c.323 1.214-3.524 1.567-3.287 2.405.238.839 2.71-1.587 3.216-.642.506.946-3.49 2.056-3.522 2.064-1.29.33-4.568 1.028-5.713-.624"/></g>
  <rect x="244" y="0" width="52" height="52" rx="12" fill="#15171e" stroke="#2a2f3a" stroke-width="1"/>
  <g transform="translate(255.23,11.00) scale(0.1154)" fill="#E8E8E8" color="#E8E8E8"><path d="M239.184 106.203a64.72 64.72 0 0 0-5.576-53.103C219.452 28.459 191 15.784 163.213 21.74A65.586 65.586 0 0 0 52.096 45.22a64.72 64.72 0 0 0-43.23 31.36c-14.31 24.602-11.061 55.634 8.033 76.74a64.67 64.67 0 0 0 5.525 53.102c14.174 24.65 42.644 37.324 70.446 31.36a64.72 64.72 0 0 0 48.754 21.744c28.481.025 53.714-18.361 62.414-45.481a64.77 64.77 0 0 0 43.229-31.36c14.137-24.558 10.875-55.423-8.083-76.483m-97.56 136.338a48.4 48.4 0 0 1-31.105-11.255l1.535-.87l51.67-29.825a8.6 8.6 0 0 0 4.247-7.367v-72.85l21.845 12.636c.218.111.37.32.409.563v60.367c-.056 26.818-21.783 48.545-48.601 48.601M37.158 197.93a48.35 48.35 0 0 1-5.781-32.589l1.534.921l51.722 29.826a8.34 8.34 0 0 0 8.441 0l63.181-36.425v25.221a.87.87 0 0 1-.358.665l-52.335 30.184c-23.257 13.398-52.97 5.431-66.404-17.803M23.549 85.38a48.5 48.5 0 0 1 25.58-21.333v61.39a8.29 8.29 0 0 0 4.195 7.316l62.874 36.272l-21.845 12.636a.82.82 0 0 1-.767 0L41.353 151.53c-23.211-13.454-31.171-43.144-17.804-66.405zm179.466 41.695l-63.08-36.63L161.73 77.86a.82.82 0 0 1 .768 0l52.233 30.184a48.6 48.6 0 0 1-7.316 87.635v-61.391a8.54 8.54 0 0 0-4.4-7.213m21.742-32.69l-1.535-.922l-51.619-30.081a8.39 8.39 0 0 0-8.492 0L99.98 99.808V74.587a.72.72 0 0 1 .307-.665l52.233-30.133a48.652 48.652 0 0 1 72.236 50.391zM88.061 139.097l-21.845-12.585a.87.87 0 0 1-.41-.614V65.685a48.652 48.652 0 0 1 79.757-37.346l-1.535.87l-51.67 29.825a8.6 8.6 0 0 0-4.246 7.367zm11.868-25.58L128.067 97.3l28.188 16.218v32.434l-28.086 16.218l-28.188-16.218z"/></g>
  <rect x="305" y="0" width="52" height="52" rx="12" fill="#15171e" stroke="#2a2f3a" stroke-width="1"/>
  <g transform="translate(316.00,11.00) scale(1.2500)" fill="#7FC8FF" color="#7FC8FF"><path d="M13.796 0a6.93 6.93 0 0 0-4.91 2.019L5.451 5.455l3.273 3.27 3.432-3.432a2.284 2.284 0 0 1 3.277 0 2.28 2.28 0 0 1 0 3.275L12 12.001l3.273 3.273 3.433-3.435c2.692-2.692 2.692-7.127 0-9.82A6.92 6.92 0 0 0 13.796 0m-5.07 8.728-3.433 3.434c-2.692 2.693-2.692 7.126 0 9.819A6.92 6.92 0 0 0 10.203 24a6.93 6.93 0 0 0 4.911-2.02l3.432-3.432-3.271-3.272-3.433 3.433a2.284 2.284 0 0 1-3.277 0 2.28 2.28 0 0 1 0-3.276L12 12z"/></g>
  <rect x="366" y="0" width="52" height="52" rx="12" fill="#15171e" stroke="#2a2f3a" stroke-width="1"/>
  <g transform="translate(377.00,11.00) scale(1.2500)" fill="#E8E8E8" color="#E8E8E8"><path d="M17.3041 3.541h-3.6718l6.696 16.918H24Zm-10.6082 0L0 20.459h3.7442l1.3693-3.5527h7.0052l1.3693 3.5528h3.7442L10.5363 3.5409Zm-.3712 10.2232 2.2914-5.9456 2.2914 5.9456Z"/></g>
  <rect x="427" y="0" width="52" height="52" rx="12" fill="#15171e" stroke="#2a2f3a" stroke-width="1"/>
  <g transform="translate(438.00,11.00) scale(1.2500)" fill="#E8E8E8" color="#E8E8E8"><path d="M10.315 4.876L6.3048 2.8517l-4.401 2.1965 4.1186 2.0683zm1.8381.9277l4.2045 2.1223-4.3622 2.1906-4.125-2.0718zm5.6153-2.9213l4.3193 2.1658-3.863 1.9402-4.2131-2.1252zm-1.859-.9329L12.021 0 8.1742 1.9193l4.0068 2.0208zm-3.0401 16.7443V24l4.7107-2.3507-.0053-5.3085zm4.7037-4.2057l-.0052-5.2528-4.6985 2.3356v5.2546zm5.6553-.9845v5.327l-4.0178 2.0052-.0029-5.3028zm0-1.8626V6.4214l-4.0253 2.001.0034 5.2633zM11.2062 11.571L8.0333 9.9756v6.895s-3.8804-8.2564-4.2399-8.998c-.0463-.0957-.2371-.2007-.2858-.2262C2.8118 7.2812.773 6.2485.773 6.2485V18.43l2.8204 1.5076v-6.3674s3.8392 7.3775 3.878 7.458c.0389.0807.4245.8582.8362 1.1314.5485.363 2.8992 1.7766 2.8992 1.7766z"/></g>
  <rect x="488" y="0" width="52" height="52" rx="12" fill="#15171e" stroke="#2a2f3a" stroke-width="1"/>
  <g transform="translate(499.00,11.00) scale(1.2500)" fill="#76B900" color="#76B900"><path d="M8.948 8.798v-1.43a6.7 6.7 0 0 1 .424-.018c3.922-.124 6.493 3.374 6.493 3.374s-2.774 3.851-5.75 3.851c-.398 0-.787-.062-1.158-.185v-4.346c1.528.185 1.837.857 2.747 2.385l2.04-1.714s-1.492-1.952-4-1.952a6.016 6.016 0 0 0-.796.035m0-4.735v2.138l.424-.027c5.45-.185 9.01 4.47 9.01 4.47s-4.08 4.964-8.33 4.964c-.37 0-.733-.035-1.095-.097v1.325c.3.035.61.062.91.062 3.957 0 6.82-2.023 9.593-4.408.459.371 2.34 1.263 2.73 1.652-2.633 2.208-8.772 3.984-12.253 3.984-.335 0-.653-.018-.971-.053v1.864H24V4.063zm0 10.326v1.131c-3.657-.654-4.673-4.46-4.673-4.46s1.758-1.944 4.673-2.262v1.237H8.94c-1.528-.186-2.73 1.245-2.73 1.245s.68 2.412 2.739 3.11M2.456 10.9s2.164-3.197 6.5-3.533V6.201C4.153 6.59 0 10.653 0 10.653s2.35 6.802 8.948 7.42v-1.237c-4.84-.6-6.492-5.936-6.492-5.936z"/></g>
</svg>
