<svg xmlns="http://www.w3.org/2000/svg" width="920" height="360" viewBox="0 0 920 360" role="img" aria-label="KernelLord system monitor HUD">
  <title>btop // kernellord</title>
  <rect x="1" y="1" width="918" height="358" rx="14" fill="#0a0c10" stroke="#8B5CF6" stroke-opacity="0.4"/>
  <rect x="1" y="1" width="918" height="40" rx="14" fill="#12141b"/><rect x="1" y="28" width="918" height="13" fill="#12141b"/>
  <circle cx="26" cy="21" r="6" fill="#B11226"/><circle cx="46" cy="21" r="6" fill="#F5B301"/><circle cx="66" cy="21" r="6" fill="#54E59A"/>
  <text x="460.0" y="26" text-anchor="middle" font-size="14" fill="#7d8590" font-family="monospace">btop // kernellord@forge — load: forging</text>
  <text x="28" y="66" font-size="13" fill="#F5B301" font-family="monospace" font-weight="700">CPU // 6 cores</text><text x="28" y="95" font-size="12" fill="#7d8590" font-family="monospace">c0</text><rect x="58" y="84" width="250" height="13" rx="3" fill="#161922"/><rect x="58" y="84" width="40" height="13" rx="3" fill="#B11226"><animate attributeName="width" values="72;152;240;152;222;110;72" dur="3.2s" repeatCount="indefinite"/></rect><text x="28" y="117" font-size="12" fill="#7d8590" font-family="monospace">c1</text><rect x="58" y="106" width="250" height="13" rx="3" fill="#161922"/><rect x="58" y="106" width="40" height="13" rx="3" fill="#F5B301"><animate attributeName="width" values="87;170;182;77;180;187;87" dur="2.7s" repeatCount="indefinite"/></rect><text x="28" y="139" font-size="12" fill="#7d8590" font-family="monospace">c2</text><rect x="58" y="128" width="250" height="13" rx="3" fill="#161922"/><rect x="58" y="128" width="40" height="13" rx="3" fill="#B11226"><animate attributeName="width" values="20;22;137;205;155;40;20" dur="2.5s" repeatCount="indefinite"/></rect><text x="28" y="161" font-size="12" fill="#7d8590" font-family="monospace">c3</text><rect x="58" y="150" width="250" height="13" rx="3" fill="#161922"/><rect x="58" y="150" width="40" height="13" rx="3" fill="#B11226"><animate attributeName="width" values="92;92;240;32;157;150;92" dur="3.4s" repeatCount="indefinite"/></rect><text x="28" y="183" font-size="12" fill="#7d8590" font-family="monospace">c4</text><rect x="58" y="172" width="250" height="13" rx="3" fill="#161922"/><rect x="58" y="172" width="40" height="13" rx="3" fill="#B11226"><animate attributeName="width" values="30;125;192;177;240;55;30" dur="3.5s" repeatCount="indefinite"/></rect><text x="28" y="205" font-size="12" fill="#7d8590" font-family="monospace">c5</text><rect x="58" y="194" width="250" height="13" rx="3" fill="#161922"/><rect x="58" y="194" width="40" height="13" rx="3" fill="#F5B301"><animate attributeName="width" values="137;25;67;47;57;25;137" dur="3.1s" repeatCount="indefinite"/></rect>
  <g transform="translate(560,120)">
  <circle r="46" fill="none" stroke="#161922" stroke-width="12"/>
  <circle r="46" fill="none" stroke="#A855F7" stroke-width="12" stroke-linecap="round" transform="rotate(-90)" stroke-dasharray="289">
    <animate attributeName="stroke-dashoffset" values="130;72;116;87;130" dur="6s" repeatCount="indefinite"/>
  </circle>
  <text text-anchor="middle" y="-3" font-size="20" font-weight="700" fill="#F5B301" font-family="monospace">MEM</text>
  <text text-anchor="middle" y="16" font-size="12" fill="#c9d1d9" font-family="monospace">12.4G</text>
</g>
  <text x="650" y="84" font-size="12" fill="#7d8590" font-family="monospace">net // rx-tx</text>
  <rect x="646" y="92" width="248" height="64" rx="6" fill="#0c0e13"/>
  <path d="M650 135 L664 113 L678 116 L692 142 L706 127 L720 112 L734 120 L748 113 L762 146 L776 112 L790 150 L804 120 L818 134 L832 115 L846 136 L860 138 L874 120" fill="none" stroke="#F5B301" stroke-width="2"><animate attributeName="d" values="M650 135 L664 113 L678 116 L692 142 L706 127 L720 112 L734 120 L748 113 L762 146 L776 112 L790 150 L804 120 L818 134 L832 115 L846 136 L860 138 L874 120;M650 136 L664 127 L678 126 L692 142 L706 138 L720 148 L734 145 L748 142 L762 135 L776 118 L790 137 L804 125 L818 149 L832 121 L846 119 L860 121 L874 126;M650 135 L664 113 L678 116 L692 142 L706 127 L720 112 L734 120 L748 113 L762 146 L776 112 L790 150 L804 120 L818 134 L832 115 L846 136 L860 138 L874 120" dur="3.4s" repeatCount="indefinite"/></path>
  <line x1="24" y1="222" x2="896" y2="222" stroke="#A855F7" stroke-opacity="0.25"/>
  <text x="28" y="248" font-size="12" fill="#7d8590" font-family="monospace">PID    PROCESS                 CPU                    MEM</text><text x="28" y="283" font-size="13" font-family="monospace" fill="#c9d1d9">3104</text><text x="92" y="283" font-size="13" font-family="monospace" fill="#F5B301">rustc --release</text><rect x="340" y="272" width="150" height="13" rx="3" fill="#161922"/><rect x="340" y="272" width="30" height="13" rx="3" fill="#F5B301"><animate attributeName="width" values="106;121;48;88;28;105;106" dur="2.4s" repeatCount="indefinite"/></rect><rect x="620" y="272" width="150" height="13" rx="3" fill="#161922"/><rect x="620" y="272" width="20" height="13" rx="3" fill="#A855F7"><animate attributeName="width" values="55;15;145;63;111;90;55" dur="3.0s" repeatCount="indefinite"/></rect><text x="28" y="305" font-size="13" font-family="monospace" fill="#c9d1d9">288</text><text x="92" y="305" font-size="13" font-family="monospace" fill="#A855F7">turbogemd</text><rect x="340" y="294" width="150" height="13" rx="3" fill="#161922"/><rect x="340" y="294" width="30" height="13" rx="3" fill="#A855F7"><animate attributeName="width" values="102;84;33;138;61;30;102" dur="2.6999999999999997s" repeatCount="indefinite"/></rect><rect x="620" y="294" width="150" height="13" rx="3" fill="#161922"/><rect x="620" y="294" width="20" height="13" rx="3" fill="#A855F7"><animate attributeName="width" values="24;85;130;84;31;138;24" dur="3.3s" repeatCount="indefinite"/></rect><text x="28" y="327" font-size="13" font-family="monospace" fill="#c9d1d9">0991</text><text x="92" y="327" font-size="13" font-family="monospace" fill="#54E59A">tokio-runtime</text><rect x="340" y="316" width="150" height="13" rx="3" fill="#161922"/><rect x="340" y="316" width="30" height="13" rx="3" fill="#54E59A"><animate attributeName="width" values="22;76;57;144;28;106;22" dur="3.0s" repeatCount="indefinite"/></rect><rect x="620" y="316" width="150" height="13" rx="3" fill="#161922"/><rect x="620" y="316" width="20" height="13" rx="3" fill="#A855F7"><animate attributeName="width" values="136;111;51;123;39;127;136" dur="3.6s" repeatCount="indefinite"/></rect><text x="28" y="349" font-size="13" font-family="monospace" fill="#c9d1d9">0777</text><text x="92" y="349" font-size="13" font-family="monospace" fill="#B11226">fuzzer</text><rect x="340" y="338" width="150" height="13" rx="3" fill="#161922"/><rect x="340" y="338" width="30" height="13" rx="3" fill="#B11226"><animate attributeName="width" values="24;115;18;105;145;48;24" dur="3.3s" repeatCount="indefinite"/></rect><rect x="620" y="338" width="150" height="13" rx="3" fill="#161922"/><rect x="620" y="338" width="20" height="13" rx="3" fill="#A855F7"><animate attributeName="width" values="39;123;99;123;96;66;39" dur="3.9s" repeatCount="indefinite"/></rect>
</svg>
