<svg xmlns="http://www.w3.org/2000/svg" width="540" height="52" viewBox="0 0 540 52" role="img" aria-label="KernelLord offsec stack">
  <rect x="0" y="0" width="52" height="52" rx="12" fill="#15171e" stroke="#2a2f3a" stroke-width="1"/>
  <g transform="translate(11.00,11.00) scale(1.2500)" fill="#557C94" color="#557C94"><path d="M12.778 5.943s-1.97-.13-5.327.92c-3.42 1.07-5.36 2.587-5.36 2.587s5.098-2.847 10.852-3.008zm7.351 3.095l.257-.017s-1.468-1.78-4.278-2.648c1.58.642 2.954 1.493 4.021 2.665zm.42.74c.039-.068.166.217.263.337.004.024.01.039-.045.027-.005-.025-.013-.032-.013-.032s-.135-.08-.177-.137c-.041-.057-.049-.157-.028-.195zm3.448 8.479s.312-3.578-5.31-4.403a18.277 18.277 0 0 0-2.524-.187c-4.506.06-4.67-5.197-1.275-5.462 1.407-.116 3.087.643 4.73 1.408-.007.204.002.385.136.552.134.168.648.35.813.445.164.094.691.43 1.014.85.07-.131.654-.512.654-.512s-.14.003-.465-.119c-.326-.122-.713-.49-.722-.511-.01-.022-.015-.055.06-.07.059-.049-.072-.207-.13-.265-.058-.058-.445-.716-.454-.73-.009-.016-.012-.031-.04-.05-.085-.027-.46.04-.46.04s-.575-.283-.774-.893c.003.107-.099.224 0 .469-.3-.127-.558-.344-.762-.88-.12.305 0 .499 0 .499s-.707-.198-.82-.85c-.124.293 0 .469 0 .469s-1.153-.602-3.069-.61c-1.283-.118-1.55-2.374-1.43-2.754 0 0-1.85-.975-5.493-1.406-3.642-.43-6.628-.065-6.628-.065s6.45-.31 11.617 1.783c.176.785.704 2.094.989 2.723-.815.563-1.733 1.092-1.876 2.97-.143 1.878 1.472 3.53 3.474 3.58 1.9.102 3.214.116 4.806.942 1.52.84 2.766 3.4 2.89 5.703.132-1.709-.509-5.383-3.5-6.498 4.181.732 4.549 3.832 4.549 3.832zM12.68 5.663l-.15-.485s-2.484-.441-5.822-.204C3.37 5.211 0 6.38 0 6.38s6.896-1.735 12.68-.717Z"/></g>
  <rect x="61" y="0" width="52" height="52" rx="12" fill="#15171e" stroke="#2a2f3a" stroke-width="1"/>
  <g transform="translate(72.00,11.00) scale(1.2500)" fill="#2596CD" color="#2596CD"><path d="M11.353 0h1.368q4.19.218 8.144 1.616.217.077.216.309-.015 4.033-.002 12.102 0 .81-.093 1.173c-.217.845-.76 1.635-1.326 2.325q-.318.388-1.024 1.046-2.955 2.75-6.01 5.094-.183.14-.516.335h-.17q-.627-.42-.945-.673-3.992-3.184-5.442-4.459-1.348-1.185-2.169-2.611c-.369-.64-.466-1.287-.465-2.099q.01-6.048.002-12.218c0-.183.09-.264.261-.325Q7.145.227 11.352 0ZM7.474 7.864q0-.094.069-.031l2.797 2.516a.374.372 21.2 0 1 .122.276l-.006 4.333a.182.182 0 0 0 .183.184l2.524-.018a.11.11 89.8 0 0 .108-.11q-.007-2.201.01-4.461.002-.173.146-.29 1.397-1.145 2.946-2.393.068-.055.068.032v10.881q0 .092.063.024.794-.865 1.628-1.838.71-.83.984-1.87.26-.989.262-1.997.007-4.754.009-9.768a.136.136 0 0 0-.137-.136q-1.15.004-2.424 0c-.287-.002-.441-.022-.619.149Q14.16 5.317 11.982 7.4a.046.046 0 0 1-.062 0Q9.782 5.437 7.769 3.525c-.234-.222-.515-.381-.843-.373q-1.09.026-2.33.005-.184-.004-.184.18-.003 4.54.005 9.032.002.536.036 1.027c.076 1.093.2 2.126.803 3.021.574.852 1.329 1.656 2.126 2.405q.023.022.054.026.04.006.04-.034z"/></g>
  <rect x="122" y="0" width="52" height="52" rx="12" fill="#15171e" stroke="#2a2f3a" stroke-width="1"/>
  <g transform="translate(133.00,11.00) scale(1.2500)" fill="#FF6633" color="#FF6633"><path d="M0 0v24h24V0Zm11.063 3.357h1.874v2.756L10.41 9.2h2.527v3.748h4.579l-4.578 5.592v2.104h-1.876v-2.758l2.528-3.086h-2.527V11.05h-4.58l4.58-5.592Z"/></g>
  <rect x="183" y="0" width="52" height="52" rx="12" fill="#15171e" stroke="#2a2f3a" stroke-width="1"/>
  <g transform="translate(194.00,11.00) scale(1.2500)" fill="#1679A7" color="#1679A7"><path d="m2.95 0c-1.62 0-2.95 1.32-2.95 2.95v18.1c0 1.63 1.32 2.95 2.95 2.95h18.1c1.62 0 2.95-1.32 2.95-2.95v-18.1c-.00024-1.63-1.32-2.95-2.95-2.95zm0 1.09h18.1c1.04 0 1.85.818 1.85 1.86v14h-5.27c-.335-.796-2.57-6.47.283-10.9a.516.517 0 0 0-.443-.794c-5.24.0827-8.2 3.19-9.74 6.21-1.35 2.64-1.63 4.91-1.69 5.53h-4.95v-14c0-1.04.817-1.86 1.85-1.86zm13.6 5.24c-2.62 5.24.248 11.4.248 11.4a.516.517 0 0 0 .469.301h5.62v3.05c0 1.04-.817 1.86-1.85 1.86h-18.1c-1.04 0-1.85-.818-1.85-1.86v-3.05h5.39a.516.517 0 0 0 .514-.477s.226-2.8 1.66-5.62c1.34-2.62 3.67-5.17 7.91-5.57z"/></g>
  <rect x="244" y="0" width="52" height="52" rx="12" fill="#15171e" stroke="#2a2f3a" stroke-width="1"/>
  <g transform="translate(255.00,11.00) scale(1.2500)" fill="#E8E8E8" color="#E8E8E8"><path d="M15.897 20.503c-.384 0-1.782-2.489-1.97-3.198-.393-1.486-.308-2.114-.285-2.314.072-.613.667-.92.703-1.748.01-.256.14-1.535.243-2.534a1.723 1.723 0 0 1-.733-.343c.676.908-.32 1.995-1.767 3.443-1.536 1.536-4.945 2.961-4.945 2.961s1.425-3.41 2.961-4.945c1.13-1.129 2.04-1.983 2.816-1.983.22 0 .427.067.627.216a1.722 1.722 0 0 1-.343-.733c-.999.103-2.278.232-2.534.244-.829.036-1.135.63-1.747.702-.07.008-.194.024-.388.024-.36 0-.963-.054-1.926-.31-.772-.203-3.648-1.84-3.14-2.045.26-.105 1.087-.176 2.175-.176 1.047 0 2.337.066 3.596.23 1.57.205 3.01.463 3.992.656.016-.053.035-.104.058-.154l-1.004-.48s-.8-.92-.715-.984a.02.02 0 0 1 .012-.003c.126 0 .767.733.829.816l.605.202-.284-.249s-.388-1.438-.287-1.472h.004c.106 0 .459 1.25.489 1.34.07.06.303.152.596.32l-.308-.79s.14-1.305.243-1.305h.003c.105.021-.02 1.089-.047 1.221l.51.783a1.31 1.31 0 0 1 .463-.082c.184 0 .374.036.558.107-.236-.502-.218-1.025.095-1.338a.84.84 0 0 1 .353-.209.462.462 0 0 1 .457-.383c.127 0 .254.05.352.148a.497.497 0 0 1 .147.335c.151-.311.329-.73.317-.867-.03-.307-.386-.852-.39-.857a.076.076 0 0 1 .064-.119c.025 0 .05.012.064.035.016.023.381.582.414.927.018.198-.21.696-.333.95a2.227 2.227 0 0 1 .873.874c.245-.12.715-.334.927-.334l.024.001c.345.033.904.399.927.414a.076.076 0 0 1-.084.128c-.005-.004-.55-.36-.857-.39h-.015c-.15 0-.552.171-.852.317.12.004.242.053.335.147a.482.482 0 0 1 .012.681.459.459 0 0 1-.247.128.845.845 0 0 1-.21.354.924.924 0 0 1-.67.255c-.212 0-.441-.055-.667-.16.132.343.142.708.025 1.02l.783.51c.095-.019.666-.088.993-.088.13 0 .222.011.228.04.02.106-1.305.247-1.305.247l-.79-.308c.168.293.26.527.32.596.091.03 1.374.392 1.34.493-.004.012-.026.017-.063.017-.283 0-1.41-.304-1.41-.304l-.248-.284.202.605c.087.065.876.755.813.841-.004.005-.009.007-.016.007-.139 0-.967-.722-.967-.722l-.481-1.004a1.18 1.18 0 0 1-.154.058c.193.982.451 2.422.656 3.992.335 2.569.26 5.261.054 5.77-.016.041-.042.06-.076.06M12 24C5.373 24 0 18.627 0 12S5.373 0 12 0s12 5.373 12 12-5.373 12-12 12m0-22.153C6.393 1.847 1.847 6.393 1.847 12S6.393 22.153 12 22.153 22.153 17.607 22.153 12 17.607 1.847 12 1.847Z"/></g>
  <rect x="305" y="0" width="52" height="52" rx="12" fill="#15171e" stroke="#2a2f3a" stroke-width="1"/>
  <g transform="translate(316.00,11.00) scale(1.2500)" fill="#9FEF00" color="#9FEF00"><path d="m22.5106 6.4566.0008-.0123a.888.888 0 0 0-.2717-.6384c-.0084-.0084-.018-.0155-.0267-.0235-.0186-.0166-.0371-.0333-.0572-.0484-.0193-.0147-.04-.0276-.0607-.0406-.0096-.006-.0182-.0131-.0281-.0188L12.4576.1266a.891.891 0 0 0-.9223.0043L1.933 5.6744c-.0107.0062-.0203.014-.0307.0205-.0073.0047-.015.008-.0223.0128-.007.0047-.013.0106-.02.0155a.8769.8769 0 0 0-.147.1333l-.0026.003a.8872.8872 0 0 0-.2218.5847l.0009.014c-.0002.0088-.0015.0176-.0015.0264v11.0708c0 .3277.1802.6288.469.7836l9.5986 5.5417c.0076.0044.0158.0075.0236.0117a.8754.8754 0 0 0 .166.0687c.0134.004.0266.0083.0401.0117a.8793.8793 0 0 0 .072.0142c.0117.0019.0232.0045.0349.006a.835.835 0 0 0 .2157 0c.0117-.0015.0232-.0041.0348-.006a.9.9 0 0 0 .072-.0142c.0135-.0034.0267-.0077.04-.0117a.895.895 0 0 0 .0646-.0217.9134.9134 0 0 0 .1015-.047c.0078-.0042.016-.0072.0236-.0117l9.5986-5.5417a.8888.8888 0 0 0 .469-.7836V6.4779c0-.0071-.0012-.0142-.0014-.0213zM5.2543 6.0822l6.5367-3.774a.4182.4182 0 0 1 .4182 0l6.5366 3.774a.4182.4182 0 0 1 0 .7243l-6.5367 3.774a.4182.4182 0 0 1-.4182 0l-6.5366-3.774a.4182.4182 0 0 1 0-.7243zm5.6134 14.3449a.4172.4172 0 0 1-.626.3613L3.718 17.0218a.4173.4173 0 0 1-.2086-.3613V9.1279a.4172.4172 0 0 1 .6258-.3613l6.524 3.7666a.4172.4172 0 0 1 .2086.3614v7.5325zm9.623-3.7666a.4173.4173 0 0 1-.2086.3613l-6.5239 3.7666a.4172.4172 0 0 1-.6259-.3613v-7.5325c0-.149.0796-.2868.2087-.3614l6.5239-3.7666a.4172.4172 0 0 1 .6258.3613v7.5326z"/></g>
  <rect x="366" y="0" width="52" height="52" rx="12" fill="#15171e" stroke="#2a2f3a" stroke-width="1"/>
  <g transform="translate(377.00,11.00) scale(0.0586)" fill="#F5B301" color="#F5B301"><path fill="currentColor" d="M450.392 268.216c2.128 1.475 4.178 2.3 6.484 3.554c1.87 1.017 3.773 1.97 5.649 2.973c1.462.781 4.171 2.425 2.529 4.345c-1.067 1.251-3.65 1.055-5.163 1.267c-2.399.333-5.349.206-7.74 0c-2.93-.254-5.992.44-8.974.44c-2.152 0-4.32.093-6.449.087c-.767-.002-1.734.176-2.258-.5c-.545-.702-.163-1.482.263-2.066c.511-.696.992-1.625 1.607-2.169c.55-.484 1.273-.82 1.825-1.246c1.344-1.036 1.811-2.132.62-3.47c-1.184-1.333-2.054-2.276-2.115-4.162c-.077-2.409 1.453-2.904 3.503-3.43c3.07-.787 2.81-.26 5.381 1.21c1.231.705 4.256 2.763 4.838 3.167m-391.838.965c-2.166 1.418-4.237 2.19-6.576 3.382c-1.895.968-3.823 1.87-5.724 2.825c-1.483.742-4.234 2.313-2.641 4.277c1.033 1.279 3.62 1.15 5.128 1.401c2.388.396 5.34.346 7.737.204c2.935-.179 5.978.597 8.958.673c2.152.059 4.316.208 6.445.257c.766.018 1.728.222 2.27-.441c.564-.686.202-1.476-.209-2.07c-.492-.71-.949-1.651-1.549-2.211c-.538-.5-1.25-.853-1.791-1.293c-1.317-1.072-1.756-2.18-.53-3.486c1.22-1.302 2.114-2.221 2.224-4.105c.14-2.406-1.303-3.343-3.413-3.522c-2.714-.23-2.609.327-5.304 1.333c-1.33.496-4.432 2.387-5.025 2.776m451.022 17.014c-16.683 19.24-48.328 9.606-100.566 34.597c-69.325 33.167-73.89 52.895-153.634 53.459c-82.488.584-84.365-22.069-157.445-54.632c-57.686-25.703-89.631-14.17-96.46-34.303c-9.305-26.434 27.8-50.805 48.083-65.09c92.024-64.802 132.11-82.259 203.869-82.191c77.032-4.397 151.521 40.851 207.19 82.192c19.829 14.725 61.893 42.91 48.963 65.968M258.599 269.69l-.008 16.347c17.096-1.496 30.743-15.325 32.38-32.767l-16.36.032c-1.384 8.431-7.852 15.066-16.012 16.388m9.442-16.374l-9.435.018l-.004 9.8c4.622-1.169 8.253-4.966 9.439-9.818m.1-6.415c-1.09-5.014-4.8-8.955-9.527-10.155l-.004 10.174zm-48.105.095l16.537-.033c1.223-8.462 7.553-15.2 15.63-16.708l.008-16.795c-17.234 1.628-30.88 15.813-32.175 33.536m32.151 15.989l.005-9.638l-8.976.018c1.157 4.666 4.584 8.326 8.971 9.62m-15.545-9.607l-16.56.033c1.687 17.282 15.173 30.996 32.094 32.611l.008-16.405c-7.92-1.487-14.159-8.001-15.542-16.24m15.553-6.446l.005-10.046c-4.534 1.333-8.07 5.182-9.114 10.064zm38.809-.077c-1.362-17.728-15.091-31.877-32.378-33.406l-.008 16.74c8.252 1.345 14.768 8.126 16.04 16.699zm-71.367 86.084c-34.085-13.75-58.083-46.557-58.083-84.859c0-20.928 7.177-40.21 19.234-55.648c-25.098 10.645-58.524 30.852-113.737 69.212c-8.738 6.07-35.162 13.14-28.931 18.98c4.69 4.399 29.905 1.173 48.67 7.037c66.902 20.907 96.914 38.248 132.847 45.278M445.66 261.86c-51.504-36.986-86.776-57.9-115.565-69.267c11.981 15.412 19.104 34.632 19.104 55.487c0 37.031-22.436 68.917-54.727 83.42c43.165-9.94 86.137-32.789 127.146-44.132c28.016-7.751 38.995-1.466 51.31-7.623c4.965-2.483-20.128-12.76-27.268-17.885"/></g>
  <rect x="427" y="0" width="52" height="52" rx="12" fill="#15171e" stroke="#2a2f3a" stroke-width="1"/>
  <g transform="translate(438.00,11.00) scale(0.2344)"><path fill="#df241a" d="M63.587 124.447c-.84-.01-2.357.066-3.328.008s-2.675-.23-3.822-.372a69 69 0 0 1-3.782-.583c-.924-.179-2.492-.576-3.472-.818a69 69 0 0 1-3.24-.896a66 66 0 0 1-2.925-.993a90 90 0 0 1-2.707-1.085c-.7-.293-2.325-.946-3.479-1.523a72 72 0 0 1-3.575-1.922c-.805-.476-2.074-1.396-2.912-1.954a69 69 0 0 1-3-2.113a84 84 0 0 1-2.962-2.4a68 68 0 0 1-3.227-3.005a60 60 0 0 1-2.552-2.76c-.452-.525-1.709-1.995-1.57-1.884c.138.112 1.795 1.629 2.362 2.092a67 67 0 0 0 2.857 2.184c1.011.723 2.54 1.705 3.375 2.234c.834.528 2.272 1.434 3.206 1.97c.933.537 2.601 1.409 3.73 1.986a100 100 0 0 0 3.71 1.794a107 107 0 0 0 3.476 1.477c1.015.405 2.653.974 3.596 1.298s2.693.867 3.9 1.21c1.208.345 3.14.82 4.275 1.064s3.073.547 4.297.722s3.153.438 4.342.52c1.278.09 3.195.108 4.698.063c1.399-.041 3.288-.147 4.196-.254a56 56 0 0 0 3.052-.45a92 92 0 0 0 2.797-.581a87 87 0 0 0 3.396-.885a64 64 0 0 0 3.643-1.187c.889-.322 2.14-.797 2.805-1.078c.664-.28 2.145-1.01 3.317-1.605c1.171-.595 2.92-1.462 3.847-2.071a49 49 0 0 0 2.975-2.139c.709-.567 1.817-1.652 2.534-2.339s1.713-1.84 2.303-2.539s1.773-2.05 2.471-3.095c.72-1.075 1.627-2.814 2.194-3.968a43 43 0 0 0 1.546-3.674c.318-.888.754-2.411.997-3.341s.63-2.438.8-3.381c.171-.945.383-2.32.477-3.09c.11-.901.262-2.75.259-5.248c-.005-3.376-.173-4.058-.422-5.647c-.156-1.004-.45-2.643-.687-3.572c-.239-.93-.616-2.194-.87-2.883c-.256-.69-.858-2.026-1.3-2.935c-.441-.91-1.265-2.326-1.823-3.166a34 34 0 0 0-2.156-2.824c-.66-.77-1.788-1.967-2.471-2.596c-.684-.63-.942-.972-1.307-1.286c-.689-.557-1.716-.778-2.755-1.2a44 44 0 0 0-3.185-1.146a38 38 0 0 0-2.906-.734c-.79-.159-1.454-.349-1.473-.423a95 95 0 0 0-.441-1.422c-.224-.71-.736-1.968-1.139-2.798c-.428-.882-1.05-1.906-1.493-2.463c-.418-.524-1.304-1.497-1.969-2.161a44 44 0 0 0-2.28-2.11a23 23 0 0 0-2.28-1.64a332 332 0 0 1-2.206-1.365c-.55-.344-.954-.55-.9-.457c.054.092.483.71.953 1.376a61 61 0 0 1 1.715 2.606a33 33 0 0 1 1.42 2.57c.306.644.648 1.589.76 2.098c.145.657.207 1.613.213 3.28c.008 2.142-.024 2.493-.352 3.94a38 38 0 0 1-.733 2.735c-.206.63-.653 1.73-.995 2.446s-.92 1.734-1.283 2.26c-.364.527-1.002 1.273-1.418 1.657s-1.194.957-1.73 1.271a17 17 0 0 1-1.99.964a15 15 0 0 1-1.907.581a7.4 7.4 0 0 1-1.974.122c-.594-.038-1.223-.101-1.398-.143c-.311-.073-.363.036-2.595 5.492a2339 2339 0 0 1-4.66 11.29a1286 1286 0 0 1-3.933 9.345c-.853 1.993-1.889 4.323-2.3 5.178c-.64 1.328-.827 1.606-1.282 1.908c-.45.298-.692.36-1.56.395c-.87.036-1.211-.017-2.236-.346c-.665-.214-1.981-.724-2.925-1.134s-1.911-.868-2.152-1.015c-.24-.148-.8-.687-1.243-1.197s-1.07-1.31-1.392-1.778c-.425-.618-.589-.982-.6-1.335c-.014-.465.015-.5.675-.835c.514-.26.877-.35 1.417-.35c.4 0 1.32-.06 2.044-.134c.724-.073 1.66-.22 2.08-.326c.419-.107 1.012-.34 1.316-.516c.4-.232.624-.48.808-.897c.14-.317.362-1.098.493-1.735c.13-.638.323-2.076.427-3.195c.105-1.118.28-4.169.392-6.778c.165-3.878.173-4.875.042-5.46c-.089-.398-.756-1.898-1.51-3.393c-.74-1.473-1.445-2.993-1.564-3.378a19 19 0 0 1-.408-1.78a25 25 0 0 1-.268-2.48c-.066-1.237-.043-1.482.2-2.123c.153-.4.532-1.01.849-1.362c.315-.351.804-.821 1.087-1.045c.473-.375.62-.416 1.805-.51c.732-.058 2.163-.048 3.31.023c1.112.07 2.17.154 2.353.189c.182.033-.014-.11-.435-.318c-.421-.21-1.21-.494-1.751-.633a15 15 0 0 0-2.096-.334a8 8 0 0 0-2.254.132c-.629.118-1.887.47-2.797.785c-.909.313-2.053.684-2.543.822c-.489.14-1.188.456-1.552.705c-.447.305-.985.89-1.66 1.806a60 60 0 0 1-1.966 2.508c-.534.634-1.201 1.362-1.485 1.618c-.283.255-.664.502-.846.548c-.183.046-.94-.01-1.682-.125a42 42 0 0 1-2.946-.601l-1.594-.393l-.411.476c-.227.262-.54.74-.696 1.062c-.167.343-.305.91-.335 1.373s.038 1.185.165 1.752c.155.7.366 1.192.766 1.788l.551.822h-.725a7 7 0 0 1-1.473-.195a7.2 7.2 0 0 1-1.36-.528c-.337-.183-.958-.692-1.38-1.132a6.8 6.8 0 0 1-1.232-1.78l-.467-.983l-.372.434c-.205.238-.565.833-.801 1.323s-.494 1.233-.573 1.653c-.08.424-.114 1.3-.077 1.97c.044.794.163 1.471.348 1.972c.156.42.332.817.394.883c.06.067.111.224.111.35s-.088.229-.195.229c-.106 0-.55-.12-.985-.265a14 14 0 0 1-1.655-.718c-.495-.26-1.08-.699-1.37-1.027a3.5 3.5 0 0 1-.709-1.278c-.153-.527-.185-.99-.128-1.854c.041-.634.114-1.319.161-1.521c.085-.363.079-.368-.345-.286c-.238.046-.804.266-1.259.488a6 6 0 0 0-1.482 1.073c-.467.478-.858 1.084-1.357 2.107c-.385.79-.842 1.895-1.014 2.454s-.382 1.346-.465 1.749c-.083.402-.178.73-.213.73s-.312-.532-.617-1.183s-.767-1.809-1.028-2.575c-.38-1.113-.486-1.633-.53-2.599c-.041-.908.012-1.539.217-2.543c.15-.734.5-2.02.779-2.856c.278-.836.765-2.066 1.081-2.734c.316-.667.828-1.62 1.137-2.116c.31-.497.817-1.138 1.128-1.424s1.013-.746 1.56-1.021s1.595-.704 2.33-.953c.735-.248 2.938-.89 4.895-1.426c1.959-.535 4.333-1.226 5.277-1.535c.945-.309 2.354-.873 3.132-1.253s1.836-1.027 2.352-1.438a20 20 0 0 0 1.812-1.69c.481-.52 1.103-1.28 1.382-1.691c.28-.41.783-1.326 1.12-2.035c.367-.775 1.022-2.629 1.644-4.658c.604-1.972 1.267-3.853 1.597-4.536c.368-.763.814-1.438 1.287-1.948c.397-.43 1.013-.93 1.368-1.112c.487-.25.896-.344 1.664-.386c.613-.034 1.5.025 2.225.147c.664.112 2.377.346 3.807.52c1.429.174 2.61.303 2.625.287c.015-.015.563-.832 1.218-1.814a59 59 0 0 1 2.454-3.37c.695-.87 2.065-2.492 3.127-3.533c1.077-1.056 2.528-2.378 3.211-2.923c.684-.545 1.803-1.31 2.482-1.764c.68-.455 2.256-1.418 2.396-1.483c.16-.075-.77.533-.967.675c-.173.124-.725.548-1.245.92a59 59 0 0 0-2.148 1.646c-.665.534-1.812 1.452-2.518 2.094c-.705.64-1.511 1.407-1.791 1.702c-.412.434-.222.328.993-.555a63 63 0 0 1 3.115-2.093a75 75 0 0 1 3.267-1.894a65 65 0 0 1 3.115-1.56a81 81 0 0 1 2.861-1.233c.77-.31 2.028-.754 2.797-.987c.77-.234 2.2-.598 3.18-.81a76 76 0 0 1 3.432-.645a96 96 0 0 1 4.17-.52a85 85 0 0 1 4.959-.333l2.442-.075l1.757.456c.966.252 1.849.508 1.96.57c.13.072-.503.144-1.757.2a53 53 0 0 0-3.445.27c-.817.1-2 .302-2.628.446a20 20 0 0 0-2.097.62c-.524.195-1.318.56-1.763.808s-1.275.786-1.843 1.193a38 38 0 0 0-2.08 1.63c-.575.49-1.529 1.434-2.119 2.098a29 29 0 0 0-2.01 2.606a28 28 0 0 0-1.647 2.883c-.393.816-.75 1.701-.792 1.967l-.079.484l.367-.25c.202-.137.858-.523 1.45-.87c.59-.35 1.82-.976 2.733-1.394a62 62 0 0 1 3.44-1.422a70 70 0 0 1 3.75-1.246a95 95 0 0 1 3.243-.9a98 98 0 0 1 3.115-.697a83 83 0 0 1 3.56-.639a65 65 0 0 1 3.497-.408c1.128-.094 2.829-.119 4.642-.068c1.573.045 3.326.128 3.536.184c.257.07.572.526 1.411 1.463c.685.764 1.771 1.969 2.262 2.672l.912 1.308l-1.148 1.178c-.63.649-1.118 1.209-1.082 1.245s1.005.253 2.147.495c1.142.24 2.16.455 2.27.468c.736.083.744.748 1.292 1.651c.547.904 1.42 2.527 1.97 3.595s1.399 2.8 1.847 3.85s1.17 2.748 1.529 3.787c.36 1.04.864 2.7 1.142 3.68s.706 2.745.944 3.899c.237 1.153.501 2.906.641 3.92a89 89 0 0 1 .39 3.56c.084.944.127 3.147.127 4.896c.001 1.748.047 4.006-.038 4.95c-.085.945-.216 2.56-.356 3.574s-.538 2.667-.748 3.706a68 68 0 0 1-.88 3.699a78 78 0 0 1-1.208 3.89c-.394 1.147-1.12 2.914-1.538 3.893s-1.184 2.706-1.736 3.79a73 73 0 0 1-2.053 3.706c-.577.96-1.54 2.503-2.134 3.358c-.594.856-1.76 2.393-2.573 3.409s-2.119 2.565-2.914 3.414s-2.138 2.148-2.977 2.934c-.84.785-2.451 2.095-3.535 2.967a68 68 0 0 1-4.136 3.032c-1.189.79-2.792 1.825-3.553 2.26c-.76.436-2.376 1.224-3.568 1.81s-3.047 1.455-4.13 1.883s-2.738.985-3.654 1.283s-2.58.826-3.7 1.11c-1.119.285-2.762.603-3.671.777c-.91.175-2.634.495-3.787.64c-1.154.143-3.05.295-4.24.364c-1.189.07-2.848.002-3.687-.007m-14.67-27.962c.183.004.52-.03.749-.076c.236-.047.646-.308.95-.604c.424-.415.691-.898 1.31-2.365c.428-1.014 1.546-3.817 2.485-6.23c.94-2.413 2.912-7.591 4.383-11.507a988 988 0 0 0 2.754-7.375c.042-.14-.01-.083-.117.126s-.676 1.533-1.265 2.94a374 374 0 0 1-2.299 5.34a193 193 0 0 1-2.992 6.343c-.97 1.958-2.214 4.307-2.763 5.22c-.55.912-1.214 1.942-1.477 2.288a17 17 0 0 1-.996 1.176c-.284.3-.693.636-.907.747c-.33.17-.747.192-2.686.135c-1.35-.04-2.732-.154-3.358-.278c-.584-.116-1.087-.187-1.116-.157s.29.372.71.76c.42.39 1.277 1.024 1.904 1.413c.627.388 1.555.917 2.063 1.175c.507.259 1.24.572 1.628.697c.388.124.856.228 1.04.232m17.435-33.524a48 48 0 0 0 2.038-.24a28 28 0 0 0 2.575-.495c.663-.168 1.553-.49 1.977-.716c.478-.255 1.077-.741 1.575-1.28a10 10 0 0 0 1.337-1.893c.294-.564.698-1.513.9-2.108c.2-.594.48-1.615.622-2.268c.142-.654.292-1.58.335-2.057c.05-.551.004-1.316-.122-2.087a18 18 0 0 0-.657-2.532a25 25 0 0 0-1.036-2.47A41 41 0 0 0 75 43.114c-.175-.3-.337-.526-.36-.503c-.025.024.041.555.145 1.182c.106.64.19 1.975.192 3.046c.002 1.05-.06 2.337-.139 2.861a30 30 0 0 1-.446 2.176a21 21 0 0 1-.7 2.225a23 23 0 0 1-.907 1.957a20 20 0 0 1-1.097 1.774a20 20 0 0 1-1.475 1.758a18 18 0 0 1-1.881 1.684a20 20 0 0 1-1.819 1.21c-.456.254-.828.477-.828.496s.3.01.668-.018zm-52.1-3.147c.349-.039 1.55-.16 2.67-.272c1.118-.112 2.043-.212 2.055-.223c.011-.01.062-.443.114-.96c.054-.546.045-.912-.021-.873a97 97 0 0 1-2.212.963a134 134 0 0 0-2.67 1.165l-.572.27zm24.895-13.93c.03 0 1.391-.547 3.028-1.216c1.636-.67 3.02-1.261 3.076-1.316c.055-.054.036-1.752-.043-3.773s-.181-3.896-.228-4.165c-.084-.486-.089-.48-.562.827a56 56 0 0 1-1.278 3.096c-.44.978-1.138 2.322-1.55 2.984a37 37 0 0 1-1.544 2.257c-.436.578-.829 1.11-.872 1.18s-.055.127-.027.127m39.271-19.108c-.603.386-1.766 1.216-1.66 1.113c.104-.104 1.63-1.267 2.469-1.845s1.926-1.269 2.416-1.533c.49-.265 1.634-.805 2.543-1.2c.909-.397 2.477-1.075 3.491-1.48a45 45 0 0 1 2.72-.981c.48-.148 2.664-.689 2.744-.685s-2.438.731-3.488 1.1s-2.475.913-3.168 1.21a60 60 0 0 0-2.67 1.247a76 76 0 0 0-2.856 1.526a67 67 0 0 0-2.54 1.528"/><path fill="#fb7a3c" d="M48.917 96.486c-.184-.004-.652-.109-1.04-.233a14 14 0 0 1-1.628-.696a35 35 0 0 1-2.063-1.176c-.627-.388-1.484-1.023-1.904-1.413c-.42-.388-.74-.73-.71-.76s.532.041 1.116.157c.626.125 2.007.239 3.358.279c1.939.056 2.356.035 2.686-.136c.214-.11.623-.447.907-.747a17 17 0 0 0 .996-1.175c.263-.346.927-1.376 1.477-2.289s1.793-3.261 2.763-5.219a192 192 0 0 0 2.992-6.343a374 374 0 0 0 2.299-5.34c.589-1.407 1.158-2.73 1.265-2.94s.16-.267.117-.127s-1.282 3.458-2.754 7.375a1315 1315 0 0 1-4.383 11.507c-.939 2.413-2.057 5.217-2.485 6.23c-.618 1.468-.886 1.95-1.31 2.365c-.304.296-.714.557-.95.604a4.3 4.3 0 0 1-.75.077zm17.435-33.524c-.367.029-.667.036-.667.018s.372-.243.828-.497c.456-.255 1.274-.8 1.819-1.21a18.5 18.5 0 0 0 1.88-1.683a20 20 0 0 0 1.476-1.758a20 20 0 0 0 1.097-1.775a23 23 0 0 0 .907-1.957c.219-.551.533-1.553.7-2.225c.166-.671.367-1.65.446-2.175c.078-.525.14-1.812.139-2.861c-.002-1.072-.086-2.406-.192-3.047c-.104-.626-.17-1.158-.146-1.182c.024-.023.186.204.36.504c.176.3.58 1.066.897 1.702a25 25 0 0 1 1.036 2.47c.252.722.547 1.861.657 2.531c.126.772.171 1.536.122 2.087a21 21 0 0 1-.335 2.057a25 25 0 0 1-.623 2.269a18 18 0 0 1-.898 2.107c-.308.59-.876 1.395-1.338 1.894c-.498.538-1.097 1.024-1.575 1.279c-.424.226-1.314.549-1.977.717a29 29 0 0 1-2.576.495c-.753.103-1.67.211-2.036.24zm48.272-31.771c-.143-.034-.478-.072-1.002-.195a63 63 0 0 0-2.154-.452c-.899-.17-1.454-.325-1.372-.365c.159-.079 1.492-.041 2.348-.048l1.577-.018l.337.514c.185.282.415.598.381.59zm-39.816-1.4c-.348.212-.46.39-.382.128c.049-.166.473-.713 1.463-1.421c.787-.562 1.89-1.567 2.493-1.954c.603-.386 1.74-1.196 2.536-1.647a76 76 0 0 1 2.853-1.523c.775-.388 2.078-.857 2.841-1.184a56 56 0 0 1 3.559-1.33c1.224-.408 3.118-.776 4.167-.988s2.421-.398 3.05-.476c.63-.078 2.185-.202 3.374-.2c1.189.005 2.55.054 3.1.085l.842.04l1.325 1.131c.564.483 1.06 1.118 1.305 1.392c.425.476.831.681.528.6c-.175-.046-2.076-.244-3.65-.29c-1.816-.051-3.51-.027-4.64.068c-.98.082-2.553.266-3.498.409a82 82 0 0 0-3.56.638a97 97 0 0 0-3.115.696c-.7.175-2.159.58-3.242.9a71 71 0 0 0-3.751 1.247a62 62 0 0 0-3.44 1.422c-.913.418-2.143 1.044-2.734 1.393c-.59.348-.91.55-1.107.67zm-15.187-5.824c-1.215.882-1.405.988-.993.555c.28-.295 1.105-1.079 1.834-1.74a65 65 0 0 1 2.712-2.306a63 63 0 0 1 2.54-1.905c.633-.442 1.674-1.196 2.346-1.602a42 42 0 0 1 2.467-1.37a35 35 0 0 1 2.507-1.1a30 30 0 0 1 2.451-.81c.644-.17 1.502-.314 2.515-.385c.905-.063 4.307-.185 7.977-.141c2.916.035 3.696.159 4.535.243c.84.084 2.178.382 2.422.433c.269.056-.25.016-2.009.068c-1.608.047-4.04.177-5.404.318a98 98 0 0 0-4.133.52c-.908.143-2.454.434-3.433.646a49 49 0 0 0-3.178.808a41 41 0 0 0-2.798.988c-.77.31-2.057.865-2.86 1.232a65 65 0 0 0-3.116 1.56a75 75 0 0 0-3.267 1.894a63 63 0 0 0-3.115 2.094"/><path fill="#fd9f14" d="M64.477 120.826c-1.399.028-2.858.03-3.243.004s-1.443-.108-2.352-.18a64 64 0 0 1-3.751-.457a77 77 0 0 1-4.26-.81a83 83 0 0 1-3.958-1.006a94 94 0 0 1-3.687-1.17a96 96 0 0 1-3.798-1.418a104 104 0 0 1-3.688-1.583a106 106 0 0 1-3.878-1.906c-1.154-.6-3.1-1.691-4.323-2.425a98 98 0 0 1-3.815-2.415a96 96 0 0 1-2.988-2.13a53 53 0 0 1-2.406-1.924c-.554-.48-1.43-1.34-1.46-1.432c-.032-.096.673.378 1.056.6c.375.218 1.623.853 2.758 1.45s2.8 1.383 3.694 1.807c.893.424 2.447 1.152 3.46 1.603c1.015.452 3.077 1.306 4.545 1.887a131 131 0 0 0 5.417 1.981a122 122 0 0 0 4.536 1.422c1.09.31 2.843.772 3.921 1.022s2.728.625 3.657.8c.93.175 2.581.434 3.645.572c1.063.138 2.941.287 4.2.369c1.313.085 3.145.086 4.353.04c1.159-.044 2.867-.147 3.736-.254s2.396-.372 3.445-.586s2.696-.56 3.64-.804a73 73 0 0 0 3.687-1.06c1.084-.353 2.746-.997 3.725-1.382a56 56 0 0 0 3.626-1.626c1.014-.504 2.287-1.156 2.811-1.46a55 55 0 0 0 2.339-1.457a48 48 0 0 0 2.787-2.044c.76-.607 2.06-1.8 2.9-2.64s1.939-2.016 2.416-2.61c.476-.595 1.287-1.782 1.83-2.591s1.301-2.058 1.703-2.808a40 40 0 0 0 1.423-3.016c.383-.925.9-2.27 1.133-3.04c.234-.768.56-2.072.744-2.895c.185-.824.418-2.268.56-3.228c.165-1.123.399-2.77.446-4.615c.048-1.847-.114-3.382-.211-4.308a46 46 0 0 0-.337-2.518c-.104-.603-.299-1.789-.507-2.615c-.21-.827-.687-2.199-1.006-3.086c-.32-.886-.958-2.37-1.436-3.349c-.48-.98-1.351-2.56-1.978-3.502c-.627-.943-1.545-2.06-1.907-2.553l-.653-.885l.667.552c.366.302 1.168 1.046 1.783 1.653a39 39 0 0 1 2.122 2.31a35 35 0 0 1 1.886 2.543c.485.734 1.274 2.136 1.756 3.115c.48.979 1.075 2.34 1.32 3.025c.246.684.613 1.886.817 2.67s.487 2.14.632 3.015c.144.874.32 2.247.393 3.052c.072.804.131 2.294.131 3.312s-.06 2.62-.133 3.56a62 62 0 0 1-.382 3.412c-.137.936-.427 2.48-.644 3.43a49 49 0 0 1-.889 3.275c-.272.85-.73 2.11-1.016 2.8a55 55 0 0 1-1.263 2.736a38 38 0 0 1-1.402 2.543a40 40 0 0 1-1.309 1.952a54 54 0 0 1-1.533 1.97c-.487.595-1.499 1.687-2.249 2.429s-1.887 1.843-2.574 2.395c-.687.553-1.977 1.56-2.922 2.19s-2.48 1.426-3.306 1.873a56 56 0 0 1-3.306 1.608a67 67 0 0 1-3.456 1.393c-.909.33-2.522.849-3.585 1.155a85 85 0 0 1-3.56.93a80 80 0 0 1-3.09.639a58 58 0 0 1-3.18.453c-.944.104-2.86.213-4.26.241M16.3 100.306c-.295 0-.625-.07-.731-.158c-.107-.087-.404-.453-.66-.812c-.385-.537-.467-.762-.467-1.271c0-.34.1-.818.223-1.061c.122-.244.423-.578.667-.743c.358-.241.564-.289 1.053-.243c.409.038.717.156.939.36c.18.168.408.49.504.714c.096.225.174.7.174 1.054c0 .353-.078.83-.173 1.058c-.096.229-.357.57-.582.76c-.303.254-.548.343-.947.343m-.14-.635c.163 0 .389-.035.502-.079c.113-.043.29-.24.391-.439c.103-.197.186-.634.186-.97c0-.374-.094-.763-.242-1.006c-.133-.218-.392-.434-.574-.48c-.183-.046-.446-.023-.585.051a1.4 1.4 0 0 0-.432.416c-.1.155-.194.453-.21.663a7 7 0 0 0-.01.722c.01.187.167.516.348.73c.194.231.45.392.625.392m.52-4.704c-.167 0-.338-.09-.38-.202c-.043-.11-.078-.907-.078-1.77v-1.57l-.372.106c-.284.082-.39.061-.445-.083c-.04-.105-.073-.237-.073-.294s.268-.196.595-.308s.699-.203.827-.203c.215 0 .23.156.23 2.162v2.162zm5.261-.055c-.304.046-.608-.018-.975-.203c-.387-.197-.61-.428-.81-.84c-.217-.448-.265-.731-.221-1.327c.035-.49.144-.878.309-1.098a3.6 3.6 0 0 1 .605-.602c.242-.18.529-.258.921-.25c.352.008.698.108.904.262c.183.137.447.468.586.735c.166.32.252.737.252 1.216c0 .49-.08.867-.243 1.147a2.6 2.6 0 0 1-.565.655a2 2 0 0 1-.763.305m-.203-.581c.095 0 .321-.117.504-.261c.185-.146.395-.495.474-.79c.106-.393.105-.654-.004-1.018c-.08-.269-.258-.6-.394-.736a1 1 0 0 0-.606-.247c-.222 0-.477.126-.668.328c-.26.278-.308.455-.308 1.155c0 .773.027.85.416 1.198c.228.204.492.37.586.37zm-10.64-1.018c-.02 0-.191-.315-.38-.701c-.19-.387-.345-.759-.345-.827c0-.069-.114-.239-.255-.379c-.139-.14-.253-.305-.253-.366c0-.062.128-.147.286-.19a3 3 0 0 1 .635-.078l.35-.002v1.272c0 .699-.017 1.271-.037 1.271m-.33-3.941h-.394V85.91l-.43.08c-.383.072-.437.047-.489-.226c-.053-.278.012-.328.685-.532c.409-.124.786-.183.838-.13c.052.051.115 1.033.14 2.181l.044 2.088zm5.507-.053c-.278.032-.673-.023-.892-.122c-.218-.098-.53-.368-.696-.601c-.217-.305-.314-.642-.35-1.223c-.03-.468.014-.96.106-1.182c.086-.21.353-.552.591-.762c.356-.312.547-.38 1.056-.38c.49 0 .708.072 1.03.343c.224.19.486.531.581.76c.097.228.174.717.174 1.088c0 .413-.091.844-.236 1.112c-.129.242-.377.546-.55.676s-.54.26-.814.291m-.163-.583c.142 0 .43-.174.643-.386c.367-.367.384-.428.333-1.226c-.046-.722-.102-.88-.403-1.139c-.192-.165-.48-.3-.637-.3s-.411.115-.563.257a1.4 1.4 0 0 0-.357.58c-.045.176-.053.614-.018.973c.048.506.14.72.403.947c.188.162.457.294.599.294m5.592.508c-.35 0-.745-.097-.978-.239a1.84 1.84 0 0 1-.593-.667a4.4 4.4 0 0 1-.287-.885c-.046-.251-.019-.7.06-.996s.33-.74.556-.986c.322-.352.531-.46.978-.506c.407-.043.693.01 1.01.185c.256.141.563.473.73.79a2.5 2.5 0 0 1 .287 1.131a3.2 3.2 0 0 1-.238 1.103c-.13.285-.393.643-.587.794c-.245.194-.527.276-.938.276m-.042-.635c.223 0 .48-.122.66-.314q.295-.313.354-.936c.04-.422-.008-.764-.151-1.067c-.117-.245-.357-.511-.534-.592c-.248-.113-.4-.11-.661.014c-.187.089-.446.379-.575.644c-.18.368-.216.623-.15 1.065c.054.356.205.7.39.884c.178.178.452.302.667.302m5.548.588a1.6 1.6 0 0 1-.943-.168c-.285-.147-.548-.433-.73-.797a2.75 2.75 0 0 1-.287-1.2c0-.37.104-.847.252-1.151c.138-.286.432-.627.653-.757c.22-.13.61-.237.865-.237c.256 0 .648.095.872.21c.227.118.52.433.663.712c.17.331.256.75.256 1.24c0 .475-.085.893-.236 1.176c-.13.242-.378.545-.552.675c-.173.13-.54.264-.813.297m-.092-.596c.084.004.302-.12.484-.278c.183-.158.38-.5.439-.763s.06-.683.004-.934a1.9 1.9 0 0 0-.39-.763c-.168-.178-.433-.306-.636-.306q-.348 0-.677.391c-.257.307-.329.53-.329 1.024c0 .348.089.804.197 1.014s.324.433.477.494c.154.062.348.116.431.12m-5.574-4.952c-.235 0-.615-.115-.847-.257c-.243-.148-.524-.483-.665-.794a3.4 3.4 0 0 1-.247-1.175c-.001-.382.092-.816.233-1.081c.13-.244.424-.572.654-.729a1.7 1.7 0 0 1 .964-.286c.4 0 .647.087.939.333c.217.183.488.512.602.731c.118.227.207.702.207 1.105c0 .507-.083.859-.295 1.236c-.17.301-.473.61-.708.723a2.3 2.3 0 0 1-.838.194zm.092-.639c.145.002.39-.13.543-.293a2.1 2.1 0 0 0 .404-.73c.068-.239.088-.624.044-.856c-.043-.233-.22-.591-.392-.796q-.313-.374-.673-.373c-.244 0-.463.125-.687.392c-.258.306-.33.528-.33 1.023c0 .348.086.798.191 1.001s.291.427.414.499c.122.071.34.131.486.133m5.33.512c-.28 0-.69-.111-.915-.248a2.1 2.1 0 0 1-.631-.667c-.148-.275-.226-.707-.23-1.255c-.003-.687.054-.92.314-1.303c.175-.257.499-.553.72-.659c.22-.104.563-.19.764-.19c.2 0 .56.105.8.234c.244.13.553.454.698.73c.182.348.26.728.254 1.26c-.003.472-.09.924-.228 1.183c-.122.23-.406.53-.63.667a2.1 2.1 0 0 1-.915.248m-.012-.635a.94.94 0 0 0 .71-.317c.212-.225.314-.51.353-.985c.043-.55 0-.748-.248-1.114c-.226-.334-.407-.455-.725-.486c-.302-.029-.51.04-.725.243a1.5 1.5 0 0 0-.382.709a2.8 2.8 0 0 0 .002.856c.044.238.198.581.34.763c.186.236.38.331.675.331m4.908-1.017h-.381V78.2l-.405.116c-.223.064-.416.103-.43.086a2 2 0 0 1-.108-.302c-.072-.236-.004-.3.516-.477c.33-.112.732-.204.894-.204h.295v4.45zm5.575-4.832c-.163 0-.497-.1-.74-.223a2.25 2.25 0 0 1-.725-.645c-.156-.232-.32-.677-.367-.99a3 3 0 0 1 .07-1.123a2.5 2.5 0 0 1 .583-.97c.352-.341.552-.425 1.13-.473c.68-.056.72-.041 1.2.44c.312.311.555.708.65 1.064c.117.428.12.719.012 1.185c-.078.34-.254.776-.393.97a2.1 2.1 0 0 1-.686.558c-.239.114-.57.207-.734.207m.21-.726c.14-.037.356-.155.479-.263s.287-.41.365-.672c.08-.262.105-.68.058-.93a2.2 2.2 0 0 0-.41-.838c-.225-.27-.437-.386-.7-.386c-.24 0-.485.118-.678.326c-.166.18-.339.545-.384.812a2.8 2.8 0 0 0 .053.99c.075.276.236.59.359.696c.122.107.309.226.413.263a.9.9 0 0 0 .445.002"/><path fill="#662e24" d="M61.807 115.607c-.84.029-2.47.007-3.624-.048a62 62 0 0 1-3.751-.305a107 107 0 0 1-3.243-.46a88 88 0 0 1-3.64-.696a96 96 0 0 1-4.53-1.132c-1.363-.38-3.3-.958-4.306-1.285a127 127 0 0 1-4.054-1.42a148 148 0 0 1-4.068-1.588a145 145 0 0 1-3.942-1.716a154 154 0 0 1-4.578-2.209a139 139 0 0 1-3.688-1.925c-.664-.37-1.252-.685-1.308-.7c-.054-.015-.254-.212-.443-.436l-.344-.409l.317.204c.174.112 2.606.986 5.402 1.944A2292 2292 0 0 0 32.561 107c3.007 1.008 7.013 2.288 8.901 2.843c1.889.556 4.377 1.24 5.532 1.519a76 76 0 0 0 4.323.884c1.223.207 2.911.452 3.75.545c.957.105 3.067.167 5.659.165c3.193-.002 4.565-.055 6.04-.233c1.049-.127 2.737-.4 3.75-.608a58 58 0 0 0 3.624-.889a58 58 0 0 0 3.498-1.15c.943-.35 2.704-1.115 3.91-1.699c1.208-.583 2.868-1.458 3.688-1.944a79 79 0 0 0 3.146-1.995c.91-.61 2.138-1.488 2.73-1.95a33 33 0 0 0 1.957-1.67c.484-.456 1.334-1.372 1.89-2.037a35 35 0 0 0 1.868-2.485c.471-.702 1.26-2.075 1.754-3.051a50 50 0 0 0 1.599-3.555c.384-.98.848-2.276 1.03-2.88c.184-.606.5-1.808.703-2.67c.203-.864.46-2.143.572-2.843c.111-.699.26-1.786.33-2.415c.07-.63.163-2.175.206-3.434c.047-1.36.02-3.036-.067-4.132a62 62 0 0 0-.34-3.179a31 31 0 0 0-.563-2.76c-.203-.783-.522-1.812-.71-2.288a32 32 0 0 0-.91-2.01c-.311-.629-.871-1.515-1.243-1.97a13.6 13.6 0 0 0-1.355-1.409a23 23 0 0 0-1.314-1.037c-.349-.25-1.07-.682-1.603-.962s-1.681-.74-2.553-1.024a37 37 0 0 0-3.164-.845a19.5 19.5 0 0 0-3.297-.388l-1.716-.06l-1.63.542l-1.63.542l-.486 1.492c-.267.82-.746 2.022-1.063 2.67a22 22 0 0 1-1.198 2.102a27 27 0 0 1-1.37 1.822a17 17 0 0 1-1.621 1.653c-.48.414-1.199.974-1.596 1.243s-.962.611-1.254.76c-.292.148-.978.422-1.526.609c-.763.26-1.348.357-2.514.415l-1.519.077l-1.612 4.26a594 594 0 0 1-3.55 9.09a509 509 0 0 1-2.994 7.312a188 188 0 0 1-1.969 4.45a274 274 0 0 0-1.725 3.812c-.447 1.012-1.022 2.145-1.278 2.517a8.5 8.5 0 0 1-1.088 1.236c-.343.308-.937.677-1.32.821a4.6 4.6 0 0 1-1.5.26c-.441 0-1.083-.088-1.426-.197a33 33 0 0 0-1.611-.444a26 26 0 0 1-2.225-.706a26 26 0 0 1-2.338-1.024c-.604-.31-1.613-.92-2.242-1.353a42 42 0 0 1-2.405-1.831a33 33 0 0 1-2.335-2.162c-.59-.615-2.033-2.25-3.206-3.63c-1.718-2.024-2.078-2.512-1.853-2.512c.154 0 2 .176 4.103.392c2.466.253 4.614.399 6.05.412c1.449.013 2.535-.041 3.114-.155c.49-.096 1.047-.253 1.238-.35s.428-.332.526-.523c.099-.192.243-.577.322-.857c.078-.28.23-1.739.336-3.242c.108-1.504.279-3.527.381-4.496s.185-2.57.184-3.56c-.002-1.04-.079-2.174-.183-2.689c-.135-.662-.539-1.593-1.584-3.642c-.771-1.514-1.572-3.179-1.779-3.7a14 14 0 0 1-.575-1.914a11 11 0 0 1-.197-1.896c.001-.51.06-1.185.131-1.5s.16-.671.196-.793c.052-.17.015-.203-.163-.14a1.8 1.8 0 0 0-.468.285c-.13.112-.365.461-.522.776s-.416.973-.574 1.462a14 14 0 0 1-.718 1.72a9 9 0 0 1-1 1.482c-.315.359-.94.885-1.388 1.168a9.4 9.4 0 0 1-1.621.792a5.5 5.5 0 0 1-1.697.28c-.489.002-1.204-.07-1.59-.161a15 15 0 0 1-1.64-.537c-.733-.288-.965-.334-1.043-.207c-.055.09-.138.38-.183.647c-.054.319-.023.57.09.733c.093.136 1.256 1.05 2.583 2.029c1.327.98 2.363 1.781 2.303 1.781s-1.49.177-3.175.393c-2.054.263-3.36.371-3.957.328c-.49-.035-1.352-.211-1.917-.391s-1.366-.555-1.78-.833a45 45 0 0 1-1.04-.716l-.285-.21l.007.683c.003.375.104.929.222 1.23s.868 1.434 1.664 2.519c.797 1.084 1.645 2.105 1.885 2.268c.273.185.383.33.294.386c-.105.065-.104.135.006.267c.082.099.112.18.066.18s-.84-.14-1.764-.311a130 130 0 0 1-3.423-.693c-.958-.21-2.174-.554-2.702-.766a12 12 0 0 1-1.685-.848c-.398-.254-1.035-.782-1.416-1.171a6.5 6.5 0 0 1-1.133-1.639c-.243-.511-.463-.93-.489-.93s-.222.345-.434.767a17 17 0 0 0-.757 1.875c-.214.643-.596 2.459-.91 4.322c-.297 1.767-.579 3.17-.627 3.115s-.875-1.213-1.838-2.577c-.98-1.388-1.992-2.983-2.298-3.624c-.3-.63-.69-1.637-.863-2.24a18 18 0 0 1-.453-2.075a17 17 0 0 1-.136-1.984c0-.552.087-1.632.194-2.4c.107-.767.391-2.112.632-2.988c.24-.876.608-1.997.818-2.49c.21-.492.631-1.28.937-1.751a15 15 0 0 1 1.182-1.546c.343-.38 1.032-1.016 1.532-1.414s1.415-1.012 2.034-1.367c.62-.354 1.556-.816 2.08-1.025c.525-.21 1.87-.61 2.988-.89a71 71 0 0 0 3.115-.848a49 49 0 0 0 2.543-.916a42 42 0 0 0 2.802-1.246a28 28 0 0 0 2.534-1.469c.656-.439 1.778-1.36 2.492-2.049s1.596-1.68 1.958-2.204s.916-1.496 1.23-2.16c.397-.837.742-1.89 1.129-3.442c.398-1.597.719-2.57 1.124-3.402c.312-.64.866-1.551 1.231-2.024s1.013-1.122 1.44-1.442c.426-.321.976-.686 1.223-.811c.246-.126.847-.351 1.335-.501c.533-.165 1.419-.304 2.225-.35c.764-.043 1.802-.013 2.42.07c.594.08 1.681.282 2.415.45c.735.167 1.48.34 1.657.387c.294.075.395-.025 1.168-1.164a52 52 0 0 1 1.96-2.646c.613-.768 1.947-2.23 2.965-3.245s2.48-2.35 3.25-2.965a55 55 0 0 1 2.865-2.115a52 52 0 0 1 3.11-1.915A49 49 0 0 1 69.43 14.7a58 58 0 0 1 2.915-1.199a44 44 0 0 1 3.1-1.001c.874-.24 2.169-.547 2.876-.683a52 52 0 0 1 3.13-.46c1.427-.165 2.522-.199 4.833-.15c2.2.048 3.39.134 4.514.327c.839.146 2.24.446 3.115.669c.874.223 1.684.397 1.793.425c1.844.461.852.42 1.614.935a94 94 0 0 1 2.757 1.949c.754.557 1.511 1.083 1.485 1.11c-.026.026-1.516.073-3.083.141c-1.947.084-3.234.203-4.065.378a27 27 0 0 0-2.48.683a29 29 0 0 0-2.441.975c-.649.302-1.154.573-1.125.603c.03.029.754-.123 1.61-.338a50 50 0 0 1 3.004-.643a61 61 0 0 1 3.32-.45a60 60 0 0 1 4.198-.242l2.327-.046l.534.48c.293.264.73.623.958.788l.385.37l-2.08-.075c-1.12-.04-2.845-.017-3.834.056s-2.567.275-3.506.448a81 81 0 0 0-3.32.698c-.888.212-2.171.592-2.852.848c-.682.255-2.12.83-3.195 1.278a92 92 0 0 0-3.256 1.447c-.728.344-1.96 1.03-2.708 1.535c-.75.506-2.079 1.521-2.988 2.184c-.91.662-1.915 1.385-2.05 1.564l-.512.673l.113-.58c.074-.377.698-1.685 1.01-2.306c.313-.622.968-1.725 1.457-2.454a29 29 0 0 1 1.962-2.53c.59-.665 1.543-1.609 2.119-2.098a38 38 0 0 1 2.079-1.63a24 24 0 0 1 1.843-1.193a15 15 0 0 1 1.763-.809a20 20 0 0 1 2.097-.619a32 32 0 0 1 2.628-.447a53 53 0 0 1 3.445-.27c1.256-.055 1.886-.127 1.757-.2c-.112-.062-.965-.31-1.896-.551c-1.16-.3-1.686-.41-1.796-.434c-.624-.144-.683-.135-1.584-.289c-.874-.075-2.453-.29-3.781-.356c-1.476-.073-3.95-.076-6.358-.007c-3.49.1-4.094.149-5.278.425c-.735.172-1.908.526-2.606.786c-.7.26-1.9.784-2.67 1.165c-.768.38-2.407 1.296-3.64 2.035c-1.232.74-2.777 1.747-3.433 2.238a53 53 0 0 0-2.424 1.962a47 47 0 0 0-2.568 2.463a54 54 0 0 0-2.58 2.943a57 57 0 0 0-2.435 3.336a192 192 0 0 1-1.218 1.814c-.014.016-1.196-.113-2.626-.288c-1.43-.174-3.142-.408-3.806-.52c-.726-.122-1.612-.18-2.225-.146c-.769.042-1.177.137-1.664.386c-.355.182-.97.682-1.368 1.112c-.473.51-.918 1.185-1.287 1.948c-.33.683-.993 2.564-1.597 4.536c-.622 2.03-1.277 3.883-1.645 4.658c-.336.709-.84 1.624-1.119 2.035c-.279.41-.901 1.171-1.382 1.69c-.48.52-1.296 1.281-1.812 1.691s-1.574 1.058-2.352 1.438s-2.187.944-3.131 1.253c-.945.309-3.32 1-5.277 1.535c-1.958.536-4.162 1.178-4.896 1.426c-.734.249-1.783.678-2.33.953s-1.25.734-1.56 1.02s-.818.928-1.128 1.425s-.822 1.45-1.137 2.116s-.803 1.898-1.081 2.734a30 30 0 0 0-.779 2.856c-.205 1.004-.258 1.634-.217 2.543c.044.966.15 1.486.53 2.6c.261.765.724 1.923 1.028 2.574s.582 1.184.617 1.184s.13-.33.213-.731c.083-.403.292-1.19.465-1.749s.63-1.663 1.014-2.454c.5-1.023.89-1.63 1.357-2.107a6 6 0 0 1 1.482-1.073c.455-.223 1.021-.442 1.259-.488c.424-.082.43-.078.346.285c-.048.203-.121.888-.162 1.522c-.057.864-.025 1.327.128 1.854c.128.44.394.918.71 1.277c.29.33.874.768 1.37 1.027c.475.25 1.22.572 1.654.718c.435.146.879.265.985.265c.107 0 .195-.102.195-.228s-.05-.284-.111-.35c-.062-.066-.238-.464-.394-.884c-.185-.5-.304-1.178-.348-1.97c-.037-.672-.003-1.548.077-1.971c.079-.42.336-1.164.573-1.653s.596-1.086.801-1.324l.372-.433l.466.982a6.8 6.8 0 0 0 1.234 1.781c.421.44 1.042.949 1.378 1.132c.337.183.949.42 1.36.528a7 7 0 0 0 1.474.194h.725l-.551-.821a4.8 4.8 0 0 1-.766-1.788c-.127-.567-.194-1.29-.165-1.753c.03-.462.169-1.029.335-1.373c.157-.322.47-.8.696-1.061l.411-.476l1.594.392c.877.216 2.203.486 2.945.601c.743.116 1.5.172 1.683.126c.182-.046.563-.293.846-.548s.952-.984 1.485-1.618a60 60 0 0 0 1.966-2.509c.675-.916 1.213-1.5 1.66-1.806c.364-.248 1.063-.565 1.552-.704a64 64 0 0 0 2.543-.822c.91-.314 2.168-.667 2.797-.785a8 8 0 0 1 2.254-.133c.61.046 1.553.196 2.096.335c.542.14 1.33.423 1.751.633c.421.209.617.351.435.317c-.183-.034-1.241-.118-2.353-.188c-1.147-.071-2.578-.081-3.31-.024c-1.185.095-1.332.136-1.805.51c-.283.225-.772.695-1.087 1.046c-.317.351-.696.96-.849 1.362c-.243.641-.266.886-.2 2.123c.04.77.161 1.885.267 2.48c.106.594.29 1.395.41 1.78c.118.385.822 1.905 1.564 3.378c.753 1.494 1.42 2.994 1.51 3.393c.13.585.122 1.582-.043 5.46c-.111 2.61-.287 5.66-.392 6.778c-.104 1.12-.297 2.557-.427 3.194c-.131.638-.353 1.419-.493 1.735c-.184.417-.409.666-.808.898c-.304.177-.897.408-1.317.515s-1.355.254-2.08.327c-.724.074-1.643.134-2.043.134c-.54 0-.903.09-1.417.35c-.66.334-.69.37-.675.835c.011.353.175.717.6 1.335c.322.467.948 1.267 1.392 1.777s1.003 1.05 1.243 1.197s1.209.605 2.152 1.015s2.26.921 2.925 1.135c1.025.329 1.366.382 2.236.346c.868-.036 1.11-.097 1.56-.396c.455-.301.642-.579 1.282-1.907c.411-.855 1.446-3.185 2.3-5.178a1293 1293 0 0 0 3.934-9.346a2335 2335 0 0 0 4.66-11.29c2.23-5.455 2.282-5.564 2.594-5.49c.175.04.804.104 1.398.142a7.4 7.4 0 0 0 1.974-.122c.49-.104 1.349-.365 1.907-.582a16.5 16.5 0 0 0 1.99-.963a12 12 0 0 0 1.73-1.27c.416-.385 1.054-1.131 1.418-1.658s.942-1.543 1.283-2.26c.342-.716.79-1.817.995-2.447s.535-1.86.733-2.733c.329-1.448.36-1.8.352-3.942c-.006-1.666-.068-2.622-.213-3.279c-.112-.51-.454-1.454-.76-2.098s-.945-1.8-1.42-2.57a61 61 0 0 0-1.715-2.607a52 52 0 0 1-.953-1.376c-.054-.092.35.114.9.457c.549.344 1.542.958 2.206 1.366c.664.407 1.69 1.145 2.28 1.64c.59.496 1.615 1.445 2.28 2.11s1.551 1.636 1.97 2.161c.443.557 1.064 1.581 1.492 2.463c.403.83.915 2.089 1.139 2.797s.424 1.354.445 1.435c.346.095.306.088.597.179c.29.09 1.305.274 2.175.484s2.267.617 3.116.916c.848.3 2.021.725 2.646.989c.624.264 1.278.477 1.477.66c.199.182.786 1.082 1.294 1.712s1.224 1.602 1.59 2.162c.368.559 1.087 1.874 1.598 2.923s1.138 2.472 1.393 3.162c.254.69.661 1.977.905 2.86a39 39 0 0 1 .685 3.007c.132.77.31 2.172.394 3.115c.094 1.055.122 2.55.073 3.878a58 58 0 0 1-.274 3.806a48 48 0 0 1-.505 3.181a47 47 0 0 1-.772 3.124a43 43 0 0 1-1.037 3.05a43 43 0 0 1-1.383 3.051a39 39 0 0 1-1.717 2.988a46 46 0 0 1-1.748 2.48c-.461.594-1.556 1.817-2.433 2.717s-2.167 2.105-2.866 2.678a53 53 0 0 1-2.353 1.807a50 50 0 0 1-2.261 1.49c-.65.399-1.88 1.09-2.735 1.538a56 56 0 0 1-3.332 1.57a66 66 0 0 1-3.243 1.27a98 98 0 0 1-2.924.965c-.805.248-2.407.681-3.56.961a79 79 0 0 1-3.815.822c-.944.172-2.403.371-3.243.443a72 72 0 0 1-3.051.183M14.25 59.815l-.635.07l.571-.27c.315-.148 1.517-.673 2.671-1.165a93 93 0 0 0 2.212-.964c.066-.039.075.327.02.873c-.05.518-.102.95-.113.96s-.937.111-2.055.223c-1.12.112-2.321.234-2.67.273m24.896-13.93c-.028 0-.017-.057.027-.127c.043-.07.436-.6.872-1.18a37 37 0 0 0 1.543-2.257c.413-.662 1.11-2.005 1.55-2.984s1.016-2.373 1.279-3.096c.473-1.306.478-1.312.562-.827c.047.27.15 2.143.228 4.165c.08 2.022.098 3.72.043 3.774s-1.44.646-3.076 1.315s-3 1.217-3.028 1.217m72.94-15.703l-1.997.002l.353-.447c.194-.245.706-.781 1.137-1.191c.43-.41.745-.786.766-.76c.022.025.465.622.917 1.252l.822 1.144zm-94.672-4.768a.05.05 0 0 1-.048-.048c0-.027.1-.127.222-.223c.202-.158.207-.154.048.048c-.096.123-.196.223-.222.223"/><path fill="#221e1f" d="M64.731 127.962c-3.045.125-6.257-.079-9.155-.45a73 73 0 0 1-3.687-.581a88 88 0 0 1-3.688-.826c-1.119-.279-3.207-.899-4.64-1.379c-1.435-.48-3.376-1.196-4.316-1.594a81 81 0 0 1-3.814-1.774a82 82 0 0 1-3.378-1.788a88 88 0 0 1-2.48-1.5a74 74 0 0 1-2.65-1.787a82 82 0 0 1-3.082-2.34a74 74 0 0 1-3.072-2.623a82 82 0 0 1-3.004-2.94a70 70 0 0 1-2.81-3.115a88 88 0 0 1-2.186-2.745a86 86 0 0 1-1.78-2.467a69 69 0 0 1-1.735-2.692a88 88 0 0 1-1.852-3.242a70 70 0 0 1-1.837-3.73a80 80 0 0 1-1.646-4.005a73 73 0 0 1-1.342-4.006a92 92 0 0 1-.835-2.988a74 74 0 0 1-.57-2.606A83 83 0 0 1 .6 73.477c-.14-.943-.331-2.402-.423-3.242c-.107-.98-.167-3.208-.167-6.23s.06-5.25.167-6.231c.091-.84.282-2.298.423-3.242c.14-.944.423-2.547.628-3.56a68 68 0 0 1 .821-3.497a84 84 0 0 1 1.03-3.434a78 78 0 0 1 1.283-3.56a76 76 0 0 1 1.52-3.536a76 76 0 0 1 1.625-3.247a75 75 0 0 1 1.533-2.694a93 93 0 0 1 1.547-2.446a71 71 0 0 1 1.936-2.74a90 90 0 0 1 2.435-3.082c.725-.87 2.407-2.672 3.739-4.003c1.331-1.332 3.133-3.014 4.004-3.74a84 84 0 0 1 2.988-2.362a82 82 0 0 1 3.249-2.252a81 81 0 0 1 3.236-2.009c.766-.44 2.54-1.356 3.942-2.036s3.35-1.552 4.329-1.937a79 79 0 0 1 3.788-1.348a78 78 0 0 1 4.323-1.22a74 74 0 0 1 4.54-.948A90 90 0 0 1 57.23.295c1.064-.118 3.494-.24 5.493-.278c2.221-.041 4.375-.009 5.66.085c1.139.084 2.92.264 3.958.401c1.038.138 2.64.39 3.561.56s2.618.545 3.771.833c1.154.289 3.185.888 4.514 1.332c1.329.443 3.217 1.136 4.195 1.54c.98.404 2.84 1.261 4.133 1.904c1.294.644 3.182 1.67 4.196 2.281a91 91 0 0 1 2.968 1.867a84 84 0 0 1 2.86 2.064c.956.72 2.396 1.872 3.2 2.561s2.38 2.168 3.5 3.29c1.122 1.12 2.602 2.696 3.29 3.5c.69.804 1.897 2.32 2.685 3.37a76 76 0 0 1 2.387 3.375a85 85 0 0 1 1.942 3.179c.543.94 1.487 2.74 2.097 3.999c.611 1.26 1.44 3.119 1.84 4.133a82 82 0 0 1 1.338 3.687a75 75 0 0 1 1.06 3.56c.25.944.653 2.718.897 3.942c.245 1.224.559 3.14.7 4.26a95 95 0 0 1 .385 3.744c.072.94.131 2.975.131 4.52s-.059 3.58-.13 4.521c-.073.94-.246 2.625-.385 3.745a71 71 0 0 1-.7 4.26a82 82 0 0 1-.898 3.94a74 74 0 0 1-1.06 3.561a84 84 0 0 1-1.333 3.688c-.399 1.014-1.316 3.045-2.038 4.514c-.722 1.468-1.863 3.586-2.538 4.704a78 78 0 0 1-2.386 3.688a81 81 0 0 1-2.585 3.433a80 80 0 0 1-2.945 3.433a71 71 0 0 1-3.037 3.074a82 82 0 0 1-2.916 2.586a88 88 0 0 1-2.825 2.236a74 74 0 0 1-3.243 2.26a78 78 0 0 1-3.15 1.953a81 81 0 0 1-3.288 1.743a77 77 0 0 1-3.942 1.807a78 78 0 0 1-4.405 1.637a76 76 0 0 1-4.705 1.373a80 80 0 0 1-4.132.9a86 86 0 0 1-4.006.596c-1.698.205-3.116.271-6.612.306m-1.067-3.519c1.65.013 3.74-.034 4.64-.104a84 84 0 0 0 2.785-.263c.63-.075 1.99-.277 3.025-.449a70 70 0 0 0 3.516-.69a71 71 0 0 0 3.146-.817A80 80 0 0 0 84 121.087a66 66 0 0 0 3.493-1.354a79 79 0 0 0 3.783-1.772a74 74 0 0 0 4-2.219a67 67 0 0 0 3.527-2.299a82 82 0 0 0 3.042-2.304a72 72 0 0 0 2.924-2.504a73 73 0 0 0 2.814-2.752a71 71 0 0 0 2.62-2.913a77 77 0 0 0 2.174-2.727a74 74 0 0 0 1.889-2.67a78 78 0 0 0 1.806-2.86a71 71 0 0 0 1.873-3.443a72 72 0 0 0 1.847-4.005a75 75 0 0 0 1.584-4.25c.407-1.225.973-3.17 1.258-4.324s.66-2.874.834-3.822s.435-2.75.583-4.005c.163-1.396.297-3.516.342-5.46c.046-1.99.017-3.964-.079-5.278a93 93 0 0 0-.402-4.069a66 66 0 0 0-.633-3.878a77 77 0 0 0-.833-3.623a71 71 0 0 0-1.132-3.751a75 75 0 0 0-1.413-3.815c-.403-.98-1.25-2.812-1.884-4.072s-1.61-3.052-2.169-3.982c-.56-.93-1.78-2.758-2.712-4.063c-.933-1.306-2.243-3.023-2.913-3.816a78 78 0 0 0-2.817-3.104c-.88-.913-2.202-2.18-2.937-2.814a65 65 0 0 1-1.654-1.462c-.175-.17-1.09-.891-2.035-1.601a104 104 0 0 0-3.33-2.39a72 72 0 0 0-3.022-1.933a68 68 0 0 0-3.423-1.844a78 78 0 0 0-3.717-1.728c-.937-.396-2.799-1.087-4.139-1.535a71 71 0 0 0-4.768-1.382a71 71 0 0 0-4.24-.88a88 88 0 0 0-3.05-.45a85 85 0 0 0-2.785-.264c-.902-.07-2.85-.127-4.33-.127s-3.46.06-4.4.131s-2.397.216-3.236.32s-2.326.337-3.304.518c-.978.18-2.685.552-3.794.825c-1.11.274-2.826.761-3.817 1.084a80 80 0 0 0-3.517 1.254a74 74 0 0 0-3.513 1.503a67 67 0 0 0-3.548 1.804a78 78 0 0 0-3.256 1.924a70 70 0 0 0-2.683 1.795a77 77 0 0 0-2.385 1.795a77 77 0 0 0-2.544 2.123c-.734.644-2.222 2.079-3.308 3.188c-1.085 1.11-2.449 2.59-3.03 3.289a83 83 0 0 0-2.105 2.67c-.577.769-1.45 2-1.94 2.734a72 72 0 0 0-1.718 2.734a86 86 0 0 0-1.601 2.86a62 62 0 0 0-1.565 3.243A78 78 0 0 0 7.257 42.9c-.366.98-.872 2.46-1.125 3.285a77 77 0 0 0-.905 3.303a70 70 0 0 0-.764 3.554a75 75 0 0 0-.509 3.243a79 79 0 0 0-.318 3.129c-.071.902-.129 2.967-.129 4.59c0 1.624.058 3.69.13 4.592c.07.901.218 2.355.326 3.229a66 66 0 0 0 .577 3.56a78 78 0 0 0 .88 3.911a67 67 0 0 0 1.08 3.676a78 78 0 0 0 1.162 3.21c.32.81.963 2.303 1.429 3.317a66 66 0 0 0 1.91 3.75a74 74 0 0 0 2.261 3.742a72 72 0 0 0 2.163 3.115a85 85 0 0 0 2.18 2.744c.67.804 1.964 2.228 2.874 3.165a81 81 0 0 0 2.96 2.886a72 72 0 0 0 2.798 2.376a74 74 0 0 0 2.891 2.18a74 74 0 0 0 2.988 1.976a64 64 0 0 0 3.116 1.798a97 97 0 0 0 3.306 1.654a62 62 0 0 0 3.624 1.548c1.014.388 2.673.966 3.687 1.286s2.787.809 3.942 1.087c1.154.278 2.936.65 3.962.825a67 67 0 0 0 3.75.511c1.039.106 2.174.212 2.524.235c.349.024 1.986.053 3.637.066z"/></g>
  <rect x="488" y="0" width="52" height="52" rx="12" fill="#15171e" stroke="#2a2f3a" stroke-width="1"/>
  <g transform="translate(499.00,11.00) scale(0.0586)" fill="#F5B301" color="#F5B301"><path fill="currentColor" d="M345.594 20.28c-11.443.087-23.37 1.194-36.094 3.845c33.485 7.004 54.532 21.844 65.844 39.22c-15.476-2.647-30.64-4.472-45.47-5.532L311 40.374l-19.28 16.438c-7.537.167-14.98.55-22.314 1.156L239.97 41.78l-14.907 22.814a308 308 0 0 0-23.844 6.22l-29.47-14.97l-11.313 30.75c-8.783 4.197-17.31 8.868-25.593 13.937l-32.688-5.31l-.47 29.03a293 293 0 0 0-18.374 16.656H48l3.563 36.656c-4.38 5.908-8.603 12.045-12.688 18.375L18.47 192.25v39.5q-.017.03-.032.063V493.28h18.5c23.523-92.965 94.565-130.4 168.968-85.25c42.127 25.566 93.783 62.296 149.063 41.158a64.3 64.3 0 0 1-6.908 22.562l95.344 19.188c2.99-7.75 5.584-15.712 7.625-23.563c-3.557 2.29-10.352 4.79-19.78 3.313c-41.302-6.47-33.15-54.034-.53-58.407c10.915-1.456 21.15 3.22 27.56 11.25l18.283-38.874c-68.1 6.078-129.61-30.834-197.47-16.687c35.468 7.415 56.983 23.64 67.75 42.342a151 151 0 0 1-21.28.157l-10.813-10.25l-13.625 6.436a128 128 0 0 1-17.313-5.75l-7.718-15.47l-10.906 5.97c-7.152-4.38-13.924-9.414-20.344-15.062l-1.813-26.75l-19.436 5.03c-7.508-7.63-15.15-13.68-22.875-18.343l-1.282-19.75l-23.875 9.408c-11.712-2.7-23.455-2.622-35.063-.25c44.223-90.392 134.06-92.4 180.813-64.563c-5.227 5.68-11.388 10.355-18.125 13.78l66.562 70.908c6.928-4.58 13.63-9.564 19.844-14.782c-4.228-.204-14.15-5.01-17.47-8.06c-34.53-31.74 7.1-63.854 32.876-48.626c9.484 5.603 15.366 14.898 15.938 25.156l34.75-23.875c-59.015-34.522-85.098-97.445-148.594-125.25c23.092 24.968 31.707 49.115 30.97 69.75c-8.93-6.752-18.606-12.1-28.845-16.188l-13.845-21.25l-18.188 12.75a164 164 0 0 0-15.78-1.5l-19.094-18.093l-15.25 19.687a223 223 0 0 0-23.844 4.564l-15.75-13l-9.75 20.812a268 268 0 0 0-20.782 8.594l-23.594-8.28l-8.625 25.874c-12.263 7.768-23.966 16.49-34.876 26.062C124.307 122.443 296.518 88.99 384.938 108.562a64.4 64.4 0 0 1-6.47 19.344l95.344 19.188c2.99-7.75 5.585-15.71 7.625-23.563c-3.558 2.29-7.502 5.33-11.968 4.72c-46.308-6.31-43.81-54.725-8.345-59.813c10.903-1.57 21.15 3.193 27.563 11.22c1-10.184 1.808-35.654 2.187-45.907c-55.332 4.938-95.695-13.84-145.28-13.47z"/></g>
</svg>
