<svg xmlns="http://www.w3.org/2000/svg" width="540" height="52" viewBox="0 0 540 52" role="img" aria-label="KernelLord offsec stack">
  <title>offsec</title>
  <rect x="0" y="0" width="52" height="52" rx="12" fill="#15171e" stroke="#2a2f3a" stroke-width="1"/>
  <g transform="translate(11,11) scale(1.2500)"><path d="M12.778 5.943s-1.97-.13-5.327.92c-3.42 1.07-5.36 2.587-5.36 2.587s5.098-2.847 10.852-3.008zm7.351 3.095l.257-.017s-1.468-1.78-4.278-2.648c1.58.642 2.954 1.493 4.021 2.665zm.42.74c.039-.068.166.217.263.337.004.024.01.039-.045.027-.005-.025-.013-.032-.013-.032s-.135-.08-.177-.137c-.041-.057-.049-.157-.028-.195zm3.448 8.479s.312-3.578-5.31-4.403a18.277 18.277 0 0 0-2.524-.187c-4.506.06-4.67-5.197-1.275-5.462 1.407-.116 3.087.643 4.73 1.408-.007.204.002.385.136.552.134.168.648.35.813.445.164.094.691.43 1.014.85.07-.131.654-.512.654-.512s-.14.003-.465-.119c-.326-.122-.713-.49-.722-.511-.01-.022-.015-.055.06-.07.059-.049-.072-.207-.13-.265-.058-.058-.445-.716-.454-.73-.009-.016-.012-.031-.04-.05-.085-.027-.46.04-.46.04s-.575-.283-.774-.893c.003.107-.099.224 0 .469-.3-.127-.558-.344-.762-.88-.12.305 0 .499 0 .499s-.707-.198-.82-.85c-.124.293 0 .469 0 .469s-1.153-.602-3.069-.61c-1.283-.118-1.55-2.374-1.43-2.754 0 0-1.85-.975-5.493-1.406-3.642-.43-6.628-.065-6.628-.065s6.45-.31 11.617 1.783c.176.785.704 2.094.989 2.723-.815.563-1.733 1.092-1.876 2.97-.143 1.878 1.472 3.53 3.474 3.58 1.9.102 3.214.116 4.806.942 1.52.84 2.766 3.4 2.89 5.703.132-1.709-.509-5.383-3.5-6.498 4.181.732 4.549 3.832 4.549 3.832zM12.68 5.663l-.15-.485s-2.484-.441-5.822-.204C3.37 5.211 0 6.38 0 6.38s6.896-1.735 12.68-.717Z" fill="#557C94"/></g>
  <rect x="61" y="0" width="52" height="52" rx="12" fill="#15171e" stroke="#2a2f3a" stroke-width="1"/>
  <g transform="translate(72,11) scale(1.2500)"><path d="M11.353 0h1.368q4.19.218 8.144 1.616.217.077.216.309-.015 4.033-.002 12.102 0 .81-.093 1.173c-.217.845-.76 1.635-1.326 2.325q-.318.388-1.024 1.046-2.955 2.75-6.01 5.094-.183.14-.516.335h-.17q-.627-.42-.945-.673-3.992-3.184-5.442-4.459-1.348-1.185-2.169-2.611c-.369-.64-.466-1.287-.465-2.099q.01-6.048.002-12.218c0-.183.09-.264.261-.325Q7.145.227 11.352 0ZM7.474 7.864q0-.094.069-.031l2.797 2.516a.374.372 21.2 0 1 .122.276l-.006 4.333a.182.182 0 0 0 .183.184l2.524-.018a.11.11 89.8 0 0 .108-.11q-.007-2.201.01-4.461.002-.173.146-.29 1.397-1.145 2.946-2.393.068-.055.068.032v10.881q0 .092.063.024.794-.865 1.628-1.838.71-.83.984-1.87.26-.989.262-1.997.007-4.754.009-9.768a.136.136 0 0 0-.137-.136q-1.15.004-2.424 0c-.287-.002-.441-.022-.619.149Q14.16 5.317 11.982 7.4a.046.046 0 0 1-.062 0Q9.782 5.437 7.769 3.525c-.234-.222-.515-.381-.843-.373q-1.09.026-2.33.005-.184-.004-.184.18-.003 4.54.005 9.032.002.536.036 1.027c.076 1.093.2 2.126.803 3.021.574.852 1.329 1.656 2.126 2.405q.023.022.054.026.04.006.04-.034z" fill="#2596CD"/></g>
  <rect x="122" y="0" width="52" height="52" rx="12" fill="#15171e" stroke="#2a2f3a" stroke-width="1"/>
  <g transform="translate(133,11) scale(1.2500)"><path d="M0 0v24h24V0Zm11.063 3.357h1.874v2.756L10.41 9.2h2.527v3.748h4.579l-4.578 5.592v2.104h-1.876v-2.758l2.528-3.086h-2.527V11.05h-4.58l4.58-5.592Z" fill="#FF6633"/></g>
  <rect x="183" y="0" width="52" height="52" rx="12" fill="#15171e" stroke="#2a2f3a" stroke-width="1"/>
  <g transform="translate(194,11) scale(1.2500)"><path d="m2.95 0c-1.62 0-2.95 1.32-2.95 2.95v18.1c0 1.63 1.32 2.95 2.95 2.95h18.1c1.62 0 2.95-1.32 2.95-2.95v-18.1c-.00024-1.63-1.32-2.95-2.95-2.95zm0 1.09h18.1c1.04 0 1.85.818 1.85 1.86v14h-5.27c-.335-.796-2.57-6.47.283-10.9a.516.517 0 0 0-.443-.794c-5.24.0827-8.2 3.19-9.74 6.21-1.35 2.64-1.63 4.91-1.69 5.53h-4.95v-14c0-1.04.817-1.86 1.85-1.86zm13.6 5.24c-2.62 5.24.248 11.4.248 11.4a.516.517 0 0 0 .469.301h5.62v3.05c0 1.04-.817 1.86-1.85 1.86h-18.1c-1.04 0-1.85-.818-1.85-1.86v-3.05h5.39a.516.517 0 0 0 .514-.477s.226-2.8 1.66-5.62c1.34-2.62 3.67-5.17 7.91-5.57z" fill="#1679A7"/></g>
  <rect x="244" y="0" width="52" height="52" rx="12" fill="#15171e" stroke="#2a2f3a" stroke-width="1"/>
  <g transform="translate(255,11) scale(1.2500)"><path d="M15.897 20.503c-.384 0-1.782-2.489-1.97-3.198-.393-1.486-.308-2.114-.285-2.314.072-.613.667-.92.703-1.748.01-.256.14-1.535.243-2.534a1.723 1.723 0 0 1-.733-.343c.676.908-.32 1.995-1.767 3.443-1.536 1.536-4.945 2.961-4.945 2.961s1.425-3.41 2.961-4.945c1.13-1.129 2.04-1.983 2.816-1.983.22 0 .427.067.627.216a1.722 1.722 0 0 1-.343-.733c-.999.103-2.278.232-2.534.244-.829.036-1.135.63-1.747.702-.07.008-.194.024-.388.024-.36 0-.963-.054-1.926-.31-.772-.203-3.648-1.84-3.14-2.045.26-.105 1.087-.176 2.175-.176 1.047 0 2.337.066 3.596.23 1.57.205 3.01.463 3.992.656.016-.053.035-.104.058-.154l-1.004-.48s-.8-.92-.715-.984a.02.02 0 0 1 .012-.003c.126 0 .767.733.829.816l.605.202-.284-.249s-.388-1.438-.287-1.472h.004c.106 0 .459 1.25.489 1.34.07.06.303.152.596.32l-.308-.79s.14-1.305.243-1.305h.003c.105.021-.02 1.089-.047 1.221l.51.783a1.31 1.31 0 0 1 .463-.082c.184 0 .374.036.558.107-.236-.502-.218-1.025.095-1.338a.84.84 0 0 1 .353-.209.462.462 0 0 1 .457-.383c.127 0 .254.05.352.148a.497.497 0 0 1 .147.335c.151-.311.329-.73.317-.867-.03-.307-.386-.852-.39-.857a.076.076 0 0 1 .064-.119c.025 0 .05.012.064.035.016.023.381.582.414.927.018.198-.21.696-.333.95a2.227 2.227 0 0 1 .873.874c.245-.12.715-.334.927-.334l.024.001c.345.033.904.399.927.414a.076.076 0 0 1-.084.128c-.005-.004-.55-.36-.857-.39h-.015c-.15 0-.552.171-.852.317.12.004.242.053.335.147a.482.482 0 0 1 .012.681.459.459 0 0 1-.247.128.845.845 0 0 1-.21.354.924.924 0 0 1-.67.255c-.212 0-.441-.055-.667-.16.132.343.142.708.025 1.02l.783.51c.095-.019.666-.088.993-.088.13 0 .222.011.228.04.02.106-1.305.247-1.305.247l-.79-.308c.168.293.26.527.32.596.091.03 1.374.392 1.34.493-.004.012-.026.017-.063.017-.283 0-1.41-.304-1.41-.304l-.248-.284.202.605c.087.065.876.755.813.841-.004.005-.009.007-.016.007-.139 0-.967-.722-.967-.722l-.481-1.004a1.18 1.18 0 0 1-.154.058c.193.982.451 2.422.656 3.992.335 2.569.26 5.261.054 5.77-.016.041-.042.06-.076.06M12 24C5.373 24 0 18.627 0 12S5.373 0 12 0s12 5.373 12 12-5.373 12-12 12m0-22.153C6.393 1.847 1.847 6.393 1.847 12S6.393 22.153 12 22.153 22.153 17.607 22.153 12 17.607 1.847 12 1.847Z" fill="#F5B301"/></g>
  <rect x="305" y="0" width="52" height="52" rx="12" fill="#15171e" stroke="#2a2f3a" stroke-width="1"/>
  <g transform="translate(316,11) scale(1.2500)"><path d="m22.5106 6.4566.0008-.0123a.888.888 0 0 0-.2717-.6384c-.0084-.0084-.018-.0155-.0267-.0235-.0186-.0166-.0371-.0333-.0572-.0484-.0193-.0147-.04-.0276-.0607-.0406-.0096-.006-.0182-.0131-.0281-.0188L12.4576.1266a.891.891 0 0 0-.9223.0043L1.933 5.6744c-.0107.0062-.0203.014-.0307.0205-.0073.0047-.015.008-.0223.0128-.007.0047-.013.0106-.02.0155a.8769.8769 0 0 0-.147.1333l-.0026.003a.8872.8872 0 0 0-.2218.5847l.0009.014c-.0002.0088-.0015.0176-.0015.0264v11.0708c0 .3277.1802.6288.469.7836l9.5986 5.5417c.0076.0044.0158.0075.0236.0117a.8754.8754 0 0 0 .166.0687c.0134.004.0266.0083.0401.0117a.8793.8793 0 0 0 .072.0142c.0117.0019.0232.0045.0349.006a.835.835 0 0 0 .2157 0c.0117-.0015.0232-.0041.0348-.006a.9.9 0 0 0 .072-.0142c.0135-.0034.0267-.0077.04-.0117a.895.895 0 0 0 .0646-.0217.9134.9134 0 0 0 .1015-.047c.0078-.0042.016-.0072.0236-.0117l9.5986-5.5417a.8888.8888 0 0 0 .469-.7836V6.4779c0-.0071-.0012-.0142-.0014-.0213zM5.2543 6.0822l6.5367-3.774a.4182.4182 0 0 1 .4182 0l6.5366 3.774a.4182.4182 0 0 1 0 .7243l-6.5367 3.774a.4182.4182 0 0 1-.4182 0l-6.5366-3.774a.4182.4182 0 0 1 0-.7243zm5.6134 14.3449a.4172.4172 0 0 1-.626.3613L3.718 17.0218a.4173.4173 0 0 1-.2086-.3613V9.1279a.4172.4172 0 0 1 .6258-.3613l6.524 3.7666a.4172.4172 0 0 1 .2086.3614v7.5325zm9.623-3.7666a.4173.4173 0 0 1-.2086.3613l-6.5239 3.7666a.4172.4172 0 0 1-.6259-.3613v-7.5325c0-.149.0796-.2868.2087-.3614l6.5239-3.7666a.4172.4172 0 0 1 .6258.3613v7.5326z" fill="#9FEF00"/></g>
  <rect x="366" y="0" width="52" height="52" rx="12" fill="#15171e" stroke="#2a2f3a" stroke-width="1"/>
  <text x="392.0" y="32.0" text-anchor="middle" font-family="'JetBrains Mono',ui-monospace,monospace" font-size="16" font-weight="700" fill="#F5B301">NM</text>
  <rect x="427" y="0" width="52" height="52" rx="12" fill="#15171e" stroke="#2a2f3a" stroke-width="1"/>
  <text x="453.0" y="32.0" text-anchor="middle" font-family="'JetBrains Mono',ui-monospace,monospace" font-size="16" font-weight="700" fill="#F5B301">GH</text>
  <rect x="488" y="0" width="52" height="52" rx="12" fill="#15171e" stroke="#2a2f3a" stroke-width="1"/>
  <text x="514.0" y="32.0" text-anchor="middle" font-family="'JetBrains Mono',ui-monospace,monospace" font-size="16" font-weight="700" fill="#F5B301">HY</text>
</svg>
